<svg width="51" height="50" viewBox="0 0 51 50" fill="none" xmlns="http://www.w3.org/2000/svg">
<path d="M13.2747 11.7713C15.1195 4.99286 21.1755 0 28.4641 0C37.2 0 44.1957 7.23065 44.1957 16.1201C44.1957 16.8765 44.6642 17.6929 45.4598 18.1866C48.5265 20.0894 50.5401 23.5175 50.5401 27.4151C50.5401 30.891 48.9424 33.9514 46.4755 35.952L46.4594 35.9651C44.6512 37.394 42.3703 38.2462 39.9277 38.2462C39.0204 38.2462 38.285 37.5107 38.285 36.6035C38.285 35.6962 39.0204 34.9607 39.9277 34.9607C41.5944 34.9607 43.1609 34.3812 44.4142 33.3936C46.143 31.9877 47.2546 29.8517 47.2546 27.4151C47.2546 24.6695 45.8416 22.2901 43.7276 20.9783C42.124 19.9832 40.9102 18.1872 40.9102 16.1201C40.9102 8.96336 35.3047 3.28549 28.4641 3.28549C22.7408 3.28549 17.9227 7.20418 16.4449 12.6341C15.9922 14.2977 14.4466 15.3873 12.8001 15.3873C7.57511 15.3873 3.28547 19.7239 3.28547 25.174C3.28547 28.6795 5.0892 31.7498 7.779 33.472L7.79498 33.4822C9.34529 34.5002 10.8553 34.9607 11.6967 34.9607C12.604 34.9607 13.3395 35.6962 13.3395 36.6035C13.3395 37.5107 12.604 38.2462 11.6967 38.2462C9.9936 38.2462 7.86006 37.4538 5.9994 36.2337C2.39315 33.921 0 29.8225 0 25.174C0 17.9845 5.6864 12.1018 12.8001 12.1018C13.0426 12.1018 13.2314 11.9305 13.2747 11.7713Z" fill="white"/>
<path d="M28.3795 48.7365C28.3795 49.4344 27.8138 50.0001 27.1159 50.0001H24.5886C23.8907 50.0001 23.325 49.4344 23.325 48.7365V46.2092C23.325 45.5114 23.8907 44.9456 24.5886 44.9456H27.1159C27.8138 44.9456 28.3795 45.5114 28.3795 46.2092V48.7365Z" fill="white"/>
<path d="M34.4758 44.3964C35.1737 44.3964 35.7394 43.8306 35.7394 43.1327V40.6054C35.7394 39.9075 35.1737 39.3418 34.4758 39.3418H31.9485C31.2506 39.3418 30.6848 39.9075 30.6848 40.6054V43.1327C30.6848 43.8306 31.2506 44.3964 31.9485 44.3964H34.4758Z" fill="white"/>
<path d="M25.8525 40.9844C24.9452 40.9844 24.2097 40.2489 24.2097 39.3416V16.8031C24.2097 15.8959 24.9452 15.1604 25.8525 15.1604C26.7597 15.1604 27.4952 15.8959 27.4952 16.8031V39.3416C27.4952 40.2489 26.7597 40.9844 25.8525 40.9844Z" fill="white"/>
<path d="M31.5696 34.8111C31.5696 35.7183 32.305 36.4538 33.2123 36.4538C34.1196 36.4538 34.8551 35.7183 34.8551 34.8111V28.6749C34.8551 26.7905 36.3826 25.263 38.2669 25.263H38.9316C39.8388 25.263 40.5743 24.5275 40.5743 23.6203C40.5743 22.713 39.8388 21.9775 38.9316 21.9775H38.2669C34.568 21.9775 31.5696 24.976 31.5696 28.6749V34.8111Z" fill="white"/>
<path d="M15.9656 43.1327C15.9656 43.8306 16.5313 44.3964 17.2292 44.3964H19.7565C20.4544 44.3964 21.0202 43.8306 21.0202 43.1327V40.6054C21.0202 39.9075 20.4544 39.3418 19.7565 39.3418H17.2292C16.5313 39.3418 15.9656 39.9075 15.9656 40.6054V43.1327Z" fill="white"/>
<path d="M20.1356 34.8111C20.1356 35.7183 19.4001 36.4538 18.4928 36.4538C17.5856 36.4538 16.8501 35.7183 16.8501 34.8111V28.6749C16.8501 26.7905 15.3226 25.263 13.4383 25.263H12.7812C11.8739 25.263 11.1384 24.5275 11.1384 23.6203C11.1384 22.713 11.8739 21.9775 12.7812 21.9775H13.4383C17.1371 21.9775 20.1356 24.976 20.1356 28.6749V34.8111Z" fill="white"/>
</svg>
