<svg width="8" height="11" viewBox="0 0 8 11" fill="none" xmlns="http://www.w3.org/2000/svg">
<path d="M7.25711e-05 9.94982L7.33491e-05 1.05037C7.33844e-05 0.645978 0.232555 0.277297 0.597734 0.102586C0.741985 0.0346616 0.896741 -5.87413e-07 1.05045 -5.73976e-07C1.28573 -5.53407e-07 1.51961 0.0798277 1.70973 0.232831L7.22523 4.68256C7.47242 4.88178 7.61597 5.18253 7.61597 5.5001C7.61597 5.81766 7.47242 6.11841 7.22523 6.31763L1.70938 10.7674C1.39462 11.0215 0.961862 11.0713 0.596683 10.8976C0.232554 10.7229 7.25357e-05 10.3546 7.25711e-05 9.94982Z" fill="url(#paint0_linear_4449_183)"/>
<defs>
<linearGradient id="paint0_linear_4449_183" x1="-5.08354" y1="18.4412" x2="14.79" y2="11.9169" gradientUnits="userSpaceOnUse">
<stop stop-color="#D324A8"/>
<stop offset="1" stop-color="#551DFF"/>
</linearGradient>
</defs>
</svg>
