<svg width="40" height="30" viewBox="0 0 40 30" fill="none" xmlns="http://www.w3.org/2000/svg">
<g opacity="0.9">
<path d="M9.56596 24.715C9.22334 24.7151 8.88404 24.6469 8.56745 24.5142C8.25086 24.3815 7.96317 24.1869 7.72083 23.9416L0.764626 16.8946C0.52222 16.6492 0.329924 16.3578 0.198727 16.0371C0.0675289 15.7164 0 15.3726 0 15.0254C0 14.6783 0.0675289 14.3345 0.198727 14.0138C0.329924 13.693 0.52222 13.4017 0.764626 13.1562L7.72083 6.10933C8.21019 5.61359 8.8739 5.33508 9.56596 5.33508C10.258 5.33508 10.9217 5.61359 11.4111 6.10933C11.9005 6.60507 12.1754 7.27744 12.1754 7.97852C12.1754 8.67961 11.9005 9.35198 11.4111 9.84772L6.29829 15.0254L11.4111 20.2032C11.7762 20.5727 12.0248 21.0437 12.1255 21.5565C12.2263 22.0693 12.1746 22.6008 11.9771 23.0838C11.7796 23.5668 11.445 23.9796 11.0158 24.27C10.5866 24.5603 10.0821 24.7152 9.56596 24.715Z" fill="#FED91F"/>
</g>
<g opacity="0.9">
<path d="M30.4342 24.7148C29.9181 24.7151 29.4136 24.5602 28.9844 24.2699C28.5552 23.9795 28.2206 23.5667 28.0231 23.0837C27.8256 22.6007 27.7739 22.0691 27.8747 21.5564C27.9754 21.0436 28.224 20.5726 28.5891 20.203L33.7019 15.0253L28.5891 9.8476C28.3468 9.60213 28.1546 9.31072 28.0234 8.99C27.8923 8.66929 27.8248 8.32554 27.8248 7.9784C27.8248 7.63126 27.8923 7.28752 28.0234 6.9668C28.1546 6.64608 28.3468 6.35467 28.5891 6.10921C29.0784 5.61346 29.7422 5.33496 30.4342 5.33496C30.7769 5.33496 31.1162 5.40334 31.4328 5.53618C31.7494 5.66903 32.0371 5.86374 32.2794 6.10921L39.2356 13.1561C39.478 13.4015 39.6703 13.6929 39.8015 14.0137C39.9327 14.3344 40.0002 14.6781 40.0002 15.0253C40.0002 15.3725 39.9327 15.7163 39.8015 16.037C39.6703 16.3577 39.478 16.6491 39.2356 16.8945L32.2794 23.9414C32.037 24.1868 31.7493 24.3814 31.4327 24.5141C31.1161 24.6468 30.7768 24.715 30.4342 24.7148Z" fill="#FED91F"/>
</g>
<path d="M16.5201 30C16.2772 29.9997 16.0355 29.9653 15.8019 29.8978C15.1368 29.7052 14.5746 29.2529 14.2387 28.6404C13.9028 28.0279 13.8207 27.3053 14.0106 26.6316L20.9668 1.96735C21.0555 1.62756 21.2102 1.3091 21.4218 1.0306C21.6334 0.752109 21.8978 0.519176 22.1993 0.345443C22.5009 0.171709 22.8337 0.0606644 23.1781 0.0188078C23.5226 -0.0230489 23.8719 0.00512304 24.2054 0.101676C24.539 0.198229 24.8503 0.361224 25.1209 0.581118C25.3915 0.801011 25.6162 1.07339 25.7816 1.3823C25.9471 1.69121 26.05 2.03046 26.0845 2.38018C26.1189 2.7299 26.0842 3.08307 25.9823 3.41902L19.0261 28.0832C18.8705 28.6351 18.5418 29.1206 18.0896 29.4664C17.6375 29.8122 17.0866 29.9995 16.5201 30Z" fill="#FED91F"/>
</svg>
