<svg width="48" height="50" viewBox="0 0 48 50" fill="none" xmlns="http://www.w3.org/2000/svg">
<path d="M37.0301 27.6324C37.4879 27.6324 37.927 27.8136 38.2507 28.1363C38.5744 28.459 38.7563 28.8966 38.7563 29.3529H40.4825C40.4825 28.4403 40.1187 27.565 39.4713 26.9197C38.8239 26.2743 37.9457 25.9118 37.0301 25.9118H36.7798V23.8213H35.0536V25.9118H34.8033C33.8877 25.9118 33.0096 26.2743 32.3621 26.9197C31.7147 27.565 31.351 28.4403 31.351 29.3529C31.351 30.2656 31.7147 31.1409 32.3621 31.7862C33.0096 32.4315 33.8877 32.7941 34.8033 32.7941H35.0536V36.2352H34.8033C34.3455 36.2352 33.9065 36.054 33.5827 35.7313C33.259 35.4086 33.0771 34.971 33.0771 34.5147H31.351C31.351 35.4273 31.7147 36.3026 32.3621 36.9479C33.0096 37.5933 33.8877 37.9558 34.8033 37.9558H35.0536V40.0463H36.7798V37.9558H37.0301C37.9457 37.9558 38.8239 37.5933 39.4713 36.9479C40.1187 36.3026 40.4825 35.4273 40.4825 34.5147C40.4825 33.602 40.1187 32.7267 39.4713 32.0814C38.8239 31.4361 37.9457 31.0735 37.0301 31.0735H36.7798V27.6324H37.0301ZM37.0301 32.7941C37.4879 32.7941 37.927 32.9754 38.2507 33.298C38.5744 33.6207 38.7563 34.0583 38.7563 34.5147C38.7563 34.971 38.5744 35.4086 38.2507 35.7313C37.927 36.054 37.4879 36.2352 37.0301 36.2352H36.7798V32.7941H37.0301ZM35.0536 31.0735H34.8033C34.3455 31.0735 33.9065 30.8922 33.5827 30.5696C33.259 30.2469 33.0771 29.8093 33.0771 29.3529C33.0771 28.8966 33.259 28.459 33.5827 28.1363C33.9065 27.8136 34.3455 27.6324 34.8033 27.6324H35.0536V31.0735Z" fill="url(#paint0_linear_4652_83)"/>
<path d="M41.0953 0C40.75 2.02323 39.8747 3.91963 38.5578 5.49724C38.1578 5.08822 37.6801 4.76269 37.1525 4.53966C36.625 4.31663 36.0582 4.20055 35.4852 4.1982C34.8089 4.2049 34.1437 4.36993 33.5432 4.67997L26.0084 4.81761C23.9962 4.84402 22.0747 5.65644 20.6572 7.08017L1.26351 26.4108C0.454485 27.2175 0 28.3114 0 29.452C0 30.5925 0.454485 31.6864 1.26351 32.4931L6.57153 37.7924C6.87307 38.8814 7.59233 39.8085 8.57391 40.3733L22.7718 48.546C23.3574 48.8925 24.0169 49.0959 24.6965 49.1396C25.4408 49.7032 26.3511 50.0056 27.2858 49.9999H43.6845C44.8291 49.9999 45.9267 49.5467 46.736 48.7401C47.5453 47.9334 48 46.8393 48 45.6985V18.3671C47.9965 16.3677 47.2171 14.4471 45.825 13.0076L39.7834 6.76186C41.3909 4.90276 42.4434 2.63171 42.8214 0.206469L41.0953 0ZM2.48047 27.6324L21.8742 8.29317C22.9865 7.20662 24.4769 6.59022 26.0343 6.5726L28.0367 6.52958L25.3007 7.31245C23.3699 7.86794 21.7303 9.1476 20.7263 10.8826L7.01171 34.5147C6.85488 34.7873 6.72758 35.0757 6.63195 35.375L2.48047 31.2715C1.99822 30.7879 1.72753 30.1338 1.72753 29.452C1.72753 28.7701 1.99822 28.116 2.48047 27.6324ZM9.45426 38.9022C9.15943 38.7329 8.90097 38.5073 8.69367 38.2383C8.48636 37.9694 8.33428 37.6623 8.2461 37.3348C8.15793 37.0072 8.1354 36.6655 8.1798 36.3292C8.2242 35.993 8.33466 35.6687 8.50486 35.375L22.2194 11.7085C22.9995 10.3587 24.2741 9.36274 25.7754 8.92979L30.3325 7.63075L25.1539 12.9903C23.7545 14.4329 22.9717 16.3605 22.9703 18.3671V45.6985C22.9735 46.0623 23.0258 46.4239 23.1257 46.7738L9.45426 38.9022ZM46.2738 18.3671V45.6985C46.2738 46.383 46.001 47.0394 45.5154 47.5234C45.0298 48.0074 44.3713 48.2793 43.6845 48.2793H27.2858C26.599 48.2793 25.9405 48.0074 25.4549 47.5234C24.9693 47.0394 24.6965 46.383 24.6965 45.6985V18.3671C24.7052 16.8029 25.3243 15.3035 26.4227 14.1861L33.6554 6.71024C33.8927 6.46493 34.1763 6.26888 34.49 6.13341C34.8037 5.99793 35.1412 5.92571 35.483 5.92091C35.8248 5.91611 36.1642 5.97883 36.4816 6.10545C36.799 6.23207 37.0881 6.42007 37.3322 6.65863C37.1108 6.82342 36.8803 6.97565 36.6417 7.11458C36.3539 6.8693 35.9931 6.72517 35.6149 6.70441C35.2368 6.68364 34.8623 6.7874 34.5492 6.99968C34.2361 7.21197 34.0017 7.521 33.8821 7.87916C33.7625 8.23732 33.7645 8.62473 33.8876 8.9817C34.0107 9.33867 34.2481 9.64537 34.5634 9.85456C34.8786 10.0638 35.2541 10.1638 35.632 10.1393C36.0099 10.1148 36.3692 9.96717 36.6546 9.71906C36.94 9.47095 37.1356 9.13618 37.2113 8.76633C37.6799 8.51606 38.1272 8.22835 38.5491 7.90604L44.5908 14.1775C45.6754 15.3038 46.2789 16.806 46.2738 18.3671Z" fill="url(#paint1_linear_4652_83)"/>
<defs>
<linearGradient id="paint0_linear_4652_83" x1="46.5778" y1="12.8455" x2="21.936" y2="19.4215" gradientUnits="userSpaceOnUse">
<stop stop-color="#D324A8"/>
<stop offset="1" stop-color="#551DFF"/>
</linearGradient>
<linearGradient id="paint1_linear_4652_83" x1="80.04" y1="-33.8235" x2="-34.8984" y2="18.4962" gradientUnits="userSpaceOnUse">
<stop stop-color="#D324A8"/>
<stop offset="1" stop-color="#551DFF"/>
</linearGradient>
</defs>
</svg>
