<svg width="44" height="60" viewBox="0 0 44 60" fill="none" xmlns="http://www.w3.org/2000/svg">
<g clip-path="url(#clip0_4373_359)">
<path d="M4.70312 0H7.39844V2.67188H9.88281V0H12.5781V8.08594H9.88281V5.39062H7.42188V8.08594H4.70312V0ZM16.1406 2.69531H13.7617V0H21.2266V2.69531H18.8359V8.08594H16.1406V2.69531ZM22.4102 0H25.2344L26.9687 2.84766L28.7031 0H31.5273V8.08594H28.832V4.07812L26.9453 6.98438L25.0586 4.07812V8.08594H22.4102V0ZM32.8633 0H35.5586V5.41406H39.3789V8.08594H32.8633V0Z" fill="#1A1A2E"/>
<path d="M4.60937 55.1953L0.742188 11.7891H43.2578L39.3906 55.1719L21.9648 60" fill="#FF4C1E"/>
<path d="M22 56.3086V15.3516H39.3789L36.0625 52.3828L22 56.3086Z" fill="#FF651E"/>
<path d="M8.64062 20.6602H22L23.9864 23.3203L22 25.9805H14.4766L14.9688 31.4297H22L23.9864 34.1893L22 36.7383H10.0937L8.64062 20.6602ZM10.3281 39.4102H15.6719L16.0469 43.6641L22 45.2578L24.2414 47.9133L22 50.8125L11.0781 47.7656L10.3281 39.4102Z" fill="#EBEBEB"/>
<path d="M35.3125 20.6602H21.9766V25.9805H34.8203L35.3125 20.6602ZM34.3398 31.4297H21.9766V36.75H28.5391L27.918 43.6641L21.9766 45.2578V50.7891L32.875 47.7656L34.3398 31.4297Z" fill="white"/>
</g>
<defs>
<clipPath id="clip0_4373_359">
<rect width="43" height="60" fill="white" transform="translate(0.5)"/>
</clipPath>
</defs>
</svg>
