<svg width="47" height="49" viewBox="0 0 47 49" fill="none" xmlns="http://www.w3.org/2000/svg">
<path d="M35.3537 23.1551C35.7178 23.1123 36.0667 23.1106 36.3871 23.1551C36.5727 22.7371 36.6046 22.0167 36.4377 21.2322C36.1897 20.066 35.854 19.3603 35.1602 19.4702C34.4666 19.5801 34.4409 20.4248 34.689 21.591C34.8285 22.2469 35.0769 22.8077 35.3537 23.1551Z" fill="#1A1A2E"/>
<path d="M29.3986 24.0776C29.895 24.2915 30.1999 24.4334 30.3194 24.3094C30.3962 24.232 30.3732 24.0846 30.2546 23.8945C30.0098 23.5017 29.5059 23.1033 28.9712 22.8796C27.8779 22.4174 26.5741 22.5711 25.5683 23.2811C25.2363 23.5201 24.9213 23.8511 24.9665 24.0522C24.9811 24.1172 25.0307 24.1661 25.1473 24.1821C25.4211 24.213 26.3779 23.7378 27.4798 23.6715C28.2578 23.6247 28.9022 23.8636 29.3986 24.0776Z" fill="#1A1A2E"/>
<path d="M28.4002 24.6372C27.7539 24.7375 27.3972 24.9468 27.1685 25.1415C26.973 25.3093 26.8523 25.4946 26.8533 25.625C26.8538 25.687 26.8811 25.7227 26.9027 25.7407C26.9321 25.7663 26.9671 25.7804 27.009 25.7804C27.155 25.7804 27.482 25.6516 27.482 25.6516C28.3816 25.3353 28.975 25.3735 29.5632 25.4395C29.8881 25.4752 30.0416 25.4952 30.1129 25.3857C30.1339 25.3544 30.1595 25.2862 30.0944 25.1827C29.9432 24.9412 29.2905 24.5334 28.4002 24.6372Z" fill="#1A1A2E"/>
<path d="M33.3427 26.6914C33.7816 26.9033 34.2649 26.8202 34.4222 26.5057C34.5795 26.1912 34.3511 25.7647 33.9122 25.5528C33.4732 25.341 32.99 25.424 32.8326 25.7385C32.6754 26.0529 32.9038 26.4796 33.3427 26.6914Z" fill="#1A1A2E"/>
<path d="M36.1647 24.2696C35.8081 24.2637 35.5124 24.6483 35.5041 25.1286C35.4958 25.6089 35.7781 26.0032 36.1347 26.0091C36.4913 26.015 36.7871 25.6304 36.7954 25.1502C36.8036 24.6697 36.5213 24.2755 36.1647 24.2696Z" fill="#1A1A2E"/>
<path d="M12.214 32.9307C12.1254 32.8215 11.9795 32.8548 11.8385 32.887C11.74 32.9096 11.6283 32.9351 11.5059 32.933C11.2437 32.928 11.0215 32.8179 10.8968 32.6297C10.7344 32.3847 10.7438 32.0194 10.9231 31.601C10.9473 31.5447 10.9757 31.482 11.0067 31.4137C11.2928 30.7835 11.7714 29.7285 11.234 28.7234C10.8295 27.9668 10.1699 27.4957 9.37679 27.3967C8.61531 27.302 7.83142 27.5793 7.33152 28.1212C6.54267 28.9761 6.41942 30.1393 6.57189 30.5503C6.62782 30.7009 6.71521 30.7425 6.77873 30.751C6.91288 30.7688 7.11134 30.6728 7.23575 30.3444C7.24472 30.3207 7.2566 30.284 7.27141 30.2375C7.32675 30.0638 7.42992 29.7404 7.59886 29.4812C7.80258 29.1685 8.1199 28.9532 8.49236 28.8748C8.87173 28.7951 9.25958 28.8661 9.58421 29.0749C10.1367 29.4301 10.3496 30.0953 10.1136 30.73C9.99164 31.0582 9.79358 31.6858 9.83722 32.2014C9.92559 33.2452 10.579 33.6643 11.1662 33.7088C11.7371 33.73 12.1361 33.4153 12.2371 33.1851C12.2966 33.0491 12.2465 32.9662 12.214 32.9307Z" fill="#1A1A2E"/>
<path d="M45.1622 31.0218C45.1403 30.9463 44.999 30.438 44.8044 29.8255C44.6098 29.213 44.4086 28.7818 44.4086 28.7818C45.1887 27.6344 45.2026 26.6083 45.0989 26.0274C44.9881 25.3069 44.6828 24.6931 44.0675 24.0585C43.4521 23.4239 42.1937 22.774 40.425 22.2862C40.2227 22.2304 39.5557 22.0507 39.4969 22.0331C39.4924 21.9954 39.4482 19.8839 39.4079 18.9776C39.3786 18.3224 39.3214 17.2995 38.9982 16.2918C38.6131 14.9281 37.9422 13.7347 37.1047 12.9712C39.4159 10.6179 40.8585 8.0256 40.855 5.80155C40.8484 1.52477 35.5014 0.230675 28.9122 2.91094C28.9052 2.91381 27.526 3.48831 27.516 3.49319C27.5098 3.48726 24.992 1.06052 24.9541 1.02807C17.4415 -5.40882 -6.04768 20.2384 1.46221 26.4673L3.10354 27.8331C2.67779 28.9164 2.51051 30.1576 2.6472 31.4923C2.82266 33.2066 3.72288 34.8499 5.18183 36.1197C6.56694 37.3252 8.38803 38.0882 10.1552 38.0867C13.0777 44.7023 19.755 48.7608 27.5845 48.9891C35.9828 49.2342 43.0328 45.3631 45.9868 38.4092C46.18 37.9212 47 35.7222 47 33.7811C46.9999 31.8302 45.8772 31.0218 45.1622 31.0218ZM10.8009 36.2285C10.5458 36.2712 10.2854 36.2883 10.023 36.2821C7.48645 36.2152 4.74654 33.9721 4.47423 31.3117C4.17328 28.3712 5.70277 26.1081 8.41092 25.5716C8.73467 25.5076 9.12583 25.4706 9.54779 25.492C11.0651 25.5736 13.301 26.7181 13.8118 29.9651C14.2642 32.8409 13.5457 35.7688 10.8009 36.2285ZM7.96812 23.8127C6.28226 24.1346 4.79642 25.0732 3.88782 26.3698C3.34467 25.9249 2.333 25.0635 2.15432 24.7279C0.703746 22.0222 3.73749 16.7616 5.8567 13.7909C11.0941 6.44879 19.2971 0.891696 23.0946 1.89983C23.7118 2.07143 25.7564 4.40017 25.7564 4.40017C25.7564 4.40017 21.9605 6.46899 18.4404 9.35281C13.6974 12.9404 10.1145 18.1545 7.96812 23.8127ZM17.6414 13.7608C19.5033 11.6472 21.7955 9.8096 23.8488 8.77783C23.9198 8.74213 23.9952 8.81783 23.9566 8.88645C23.7936 9.17652 23.4797 9.79745 23.3801 10.2686C23.3646 10.342 23.4461 10.3972 23.509 10.355C24.7865 9.49962 27.0086 8.58317 28.9577 8.46535C29.0415 8.46028 29.0819 8.56575 29.0153 8.61599C28.7189 8.83927 28.3946 9.14829 28.1579 9.46105C28.1177 9.51426 28.1555 9.59082 28.223 9.5913C29.5916 9.60078 31.5211 10.0713 32.7785 10.7641C32.8637 10.811 32.8031 10.973 32.7079 10.9515C30.8053 10.5231 27.6907 10.1982 24.4553 10.9733C21.567 11.6653 19.3626 12.7338 17.7543 13.8828C17.6732 13.9409 17.5756 13.8354 17.6414 13.7608ZM45.248 34.4384C44.8833 36.609 43.944 38.3705 42.3656 39.991C41.4049 41.007 40.2383 41.8903 38.9038 42.5326C38.195 42.8983 37.4402 43.2148 36.643 43.4705C30.6926 45.3796 24.6018 43.2807 22.6383 38.7736C22.4817 38.4347 22.3492 38.0801 22.2446 37.7091C21.4078 34.7389 22.1183 31.1755 24.3387 28.9326C24.3389 28.9324 24.3384 28.9318 24.3385 28.9315C24.4755 28.7886 24.6151 28.6204 24.6151 28.4087C24.6151 28.2317 24.5005 28.045 24.4013 27.9126C23.6245 26.8058 20.9336 24.9197 21.4737 21.2697C21.8616 18.6476 24.1961 16.8008 26.3727 16.9103C26.5565 16.9196 26.7407 16.9308 26.9242 16.9414C27.8675 16.9962 28.6903 17.115 29.4668 17.147C30.7663 17.2021 31.935 17.0165 33.319 15.8836C33.7861 15.5014 34.1603 15.17 34.7938 15.0646C34.8602 15.0535 35.0259 14.9951 35.3569 15.0105C35.6948 15.0282 36.0165 15.1194 36.3055 15.3083C37.4152 16.0337 37.5726 17.7904 37.6301 19.0755C37.6628 19.809 37.7532 21.5839 37.7841 22.0933C37.8546 23.2583 38.1664 23.4226 38.7971 23.6265C39.1518 23.7412 39.4811 23.8268 39.9663 23.9606C41.4352 24.3657 42.306 24.7766 42.855 25.3046C43.1824 25.6345 43.3345 25.985 43.3816 26.3194C43.5549 27.5606 42.4007 29.0939 39.3452 30.4869C36.0053 32.0098 31.9535 32.3953 29.154 32.089C28.9393 32.0656 28.1758 31.9805 28.1732 31.9802C25.9339 31.6838 24.6564 34.5267 26.0004 36.4744C26.8666 37.7296 29.2259 38.5466 31.5864 38.547C36.9986 38.5477 41.1587 36.2774 42.7061 34.3165C42.7524 34.2578 42.757 34.2514 42.83 34.1432C42.9061 34.0303 42.8433 33.9683 42.7484 34.0321C41.4841 34.8818 35.8685 38.2554 29.8619 37.2405C29.8619 37.2405 29.132 37.1227 28.4657 36.8679C27.9362 36.6657 26.8281 36.165 26.6934 35.0481C31.541 36.5208 34.5932 35.1287 34.5932 35.1287C34.6482 35.1059 34.6863 35.0439 34.68 34.9825C34.6722 34.907 34.6035 34.8519 34.5267 34.8597C34.5267 34.8597 30.5531 35.4376 26.7993 34.0876C27.2081 32.7822 28.2954 33.2536 29.9387 33.3839C32.9006 33.5573 35.5553 33.1323 37.5171 32.5791C39.2172 32.0997 41.4501 31.1548 43.1844 29.8103C43.7695 31.0724 43.976 32.4617 43.976 32.4617C43.976 32.4617 44.4288 32.382 44.8072 32.6109C45.1648 32.8274 45.4271 33.2768 45.248 34.4384Z" fill="#1A1A2E"/>
</svg>
