<svg width="84" height="60" viewBox="0 0 84 60" fill="none" xmlns="http://www.w3.org/2000/svg">
<g opacity="0.15">
<path d="M68.3201 20.8073C70.168 16.1016 73.0799 11.4525 76.972 6.97348C78.204 5.55609 78.372 3.51512 77.364 1.92764C76.5799 0.680328 75.292 3.05342e-06 73.892 2.93103e-06C73.5 2.89676e-06 73.1079 0.0282087 72.7159 0.170089C64.4841 2.60798 45.2479 11.2541 44.7159 38.9784C44.52 49.6655 52.2479 58.8502 62.3 59.8991C67.872 60.4661 73.4159 58.6236 77.532 54.8816C81.6479 51.1113 84 45.7251 84 40.1123C84 30.7575 77.4479 22.5649 68.3201 20.8073Z" fill="#FED91F"/>
<path d="M17.612 59.8991C23.1561 60.4661 28.7001 58.6236 32.816 54.8816C36.9321 51.1113 39.2842 45.7251 39.2842 40.1123C39.2842 30.7575 32.7321 22.5649 23.6041 20.8073C25.4522 16.1016 28.3641 11.4525 32.2562 6.97352C33.4882 5.55612 33.6562 3.51515 32.648 1.92767C31.8641 0.680354 30.576 2.97563e-05 29.176 2.96339e-05C28.7842 2.95996e-05 28.3921 0.0282354 28.0001 0.170115C19.7681 2.60801 0.532086 11.2541 8.19464e-05 38.9785L8.19117e-05 39.3752C8.09923e-05 49.8923 7.64403 58.8502 17.612 59.8991Z" fill="#FED91F"/>
</g>
</svg>
