<svg width="33" height="30" viewBox="0 0 33 30" fill="none" xmlns="http://www.w3.org/2000/svg">
<path d="M13.4867 30C13.4099 30 13.3334 29.9835 13.2622 29.9508C13.2267 29.9343 9.60998 28.207 6.15778 24.44C4.22387 22.3298 2.71954 19.9928 1.6865 17.4944C0.40129 14.3858 -0.153822 11.0179 0.0364642 7.48418C0.0499927 7.23441 0.238726 7.02835 0.488449 6.99101C3.8067 6.49432 6.89231 5.24304 9.65922 3.27209C11.6226 1.87341 12.7701 0.561715 13.0751 0.193096C13.1762 0.0709558 13.3272 0 13.4869 0C13.6464 0 13.7976 0.0709558 13.8987 0.193096L13.92 0.219018C14.5237 0.954717 16.8051 3.49572 20.8216 5.30345C21.0892 5.42383 21.2075 5.73643 21.0859 6.00158C20.9644 6.26673 20.6488 6.38404 20.3811 6.26344C18.4687 5.40274 16.712 4.29205 15.1593 2.96213C14.7053 2.57308 14.0804 2.00192 13.482 1.33564C12.9025 1.96501 11.828 3.02583 10.2806 4.12795C9.00076 5.03962 7.62662 5.81771 6.19659 6.44028C4.55964 7.15291 2.84041 7.66498 1.08015 7.96418C0.860372 13.9394 2.83243 19.2424 6.94598 23.7311C8.26822 25.1739 9.83087 26.5278 11.4649 27.6462C12.4142 28.2957 13.1409 28.6995 13.4876 28.8812C14.1737 28.5242 16.3321 27.3164 18.6561 25.1506C22.2369 21.8133 24.5197 17.8642 25.4405 13.4126C25.4995 13.1273 25.7812 12.9436 26.0688 13.002C26.3569 13.0605 26.5426 13.339 26.4833 13.6244C25.9531 16.1876 24.971 18.6297 23.5645 20.883C22.4346 22.6933 21.0285 24.3875 19.3855 25.9186C16.4117 28.6901 13.7379 29.9383 13.7113 29.9506C13.6399 29.9835 13.5632 30 13.4867 30Z" fill="#59C2B9"/>
<path d="M13.487 26.9169C13.4103 26.9169 13.3338 26.9004 13.2626 26.8677C13.2344 26.8547 10.3673 25.4855 7.63563 22.5045C6.10491 20.834 4.91396 18.9839 4.09604 17.0057C3.07807 14.5438 2.63851 11.8769 2.7891 9.07958C2.80263 8.8298 2.99136 8.62375 3.24108 8.5864C5.83456 8.19823 8.24618 7.22023 10.409 5.67964C11.943 4.58674 12.8379 3.56415 13.0754 3.27659C13.1765 3.15445 13.3276 3.0835 13.4873 3.0835C13.6469 3.0835 13.798 3.15445 13.8991 3.27659L13.9208 3.30317C14.4986 4.00987 16.6849 6.42171 20.5662 7.78414C20.8432 7.88146 20.9883 8.18263 20.8902 8.45723C20.792 8.73161 20.4879 8.87528 20.2107 8.77818C18.3371 8.12047 16.6179 7.16355 15.1009 5.93358C14.6609 5.57683 14.0575 5.04851 13.4813 4.41562C13.0049 4.92263 12.183 5.71501 11.0308 6.53594C10.0171 7.25802 8.92882 7.87421 7.7962 8.36738C6.52762 8.91965 5.19695 9.31968 3.83434 9.55891C3.68575 14.1939 5.22866 18.3093 8.42427 21.7964C10.5806 24.1494 12.7915 25.4281 13.4881 25.7979C14.1016 25.4745 15.8805 24.4587 17.7365 22.6705C20.6658 19.8488 22.4245 16.502 22.9639 12.7236C23.0051 12.4354 23.2744 12.2346 23.5653 12.2754C23.8563 12.3161 24.059 12.583 24.0178 12.8712C22.621 22.6574 13.8009 26.8273 13.7119 26.8683C13.6403 26.9004 13.5636 26.9169 13.487 26.9169Z" fill="#59C2B9"/>
<path d="M26.404 14.0619C24.6422 14.0619 22.9858 13.3824 21.74 12.1489C20.4941 10.9152 19.8081 9.27488 19.8081 7.5302C19.8081 5.78553 20.4943 4.14519 21.74 2.91149C22.9858 1.67778 24.6422 0.998535 26.404 0.998535C28.1658 0.998535 29.8223 1.678 31.068 2.91149C32.314 4.14519 33 5.78553 33 7.5302C33 9.27488 32.3138 10.9152 31.068 12.1489C29.8221 13.3824 28.1658 14.0619 26.404 14.0619ZM26.404 2.05277C23.3539 2.05277 20.8726 4.50986 20.8726 7.52998C20.8726 10.5501 23.3541 13.0072 26.404 13.0072C29.4539 13.0072 31.9354 10.5503 31.9354 7.5302C31.9354 4.51008 29.4539 2.05277 26.404 2.05277Z" fill="#59C2B9"/>
<path d="M24.7315 10.0812C24.5876 10.0812 24.4443 10.0237 24.3396 9.91077L22.9327 8.395C22.7337 8.18059 22.7479 7.84712 22.9641 7.65007C23.1804 7.45302 23.5173 7.46708 23.7162 7.68127L24.7747 8.82161L29.1376 5.10621C29.3605 4.91641 29.6964 4.94146 29.8881 5.16223C30.0797 5.38301 30.0544 5.71582 29.8315 5.90584L25.0784 9.95382C24.9779 10.0391 24.8544 10.0812 24.7315 10.0812Z" fill="#59C2B9"/>
<path d="M13.7739 17.8641C12.1625 17.8641 10.8516 16.5656 10.8516 14.9694C10.8516 13.3732 12.1625 12.0747 13.7739 12.0747C15.3854 12.0747 16.6963 13.3732 16.6963 14.9694C16.6963 16.5656 15.3852 17.8641 13.7739 17.8641ZM13.7739 13.1294C12.7495 13.1294 11.9161 13.9549 11.9161 14.9696C11.9161 15.9843 12.7495 16.8098 13.7739 16.8098C14.7983 16.8098 15.6318 15.9843 15.6318 14.9696C15.6318 13.9549 14.7981 13.1294 13.7739 13.1294Z" fill="#59C2B9"/>
<path d="M14.444 21.388H12.8248C12.5538 21.388 12.3258 21.1862 12.2959 20.9193L12.1644 19.7521C11.8563 19.6504 11.5594 19.5199 11.2762 19.3615L10.3757 20.0742C10.1639 20.2418 9.85878 20.2251 9.66716 20.0351L8.52212 18.9009C8.33051 18.7111 8.31343 18.4088 8.48265 18.199L9.24024 17.2601C9.09542 16.9796 8.9781 16.6872 8.88916 16.3849L7.72816 16.2566C7.4587 16.2267 7.25488 16.0011 7.25488 15.7327V14.1288C7.25488 13.8601 7.4587 13.6345 7.72816 13.6049L8.91334 13.4739C9.00981 13.1653 9.13623 12.8674 9.29103 12.5827L8.58134 11.7031C8.41212 11.4933 8.42898 11.1911 8.62081 11.0012L9.76585 9.86705C9.95747 9.67703 10.2626 9.66034 10.4744 9.82795L11.362 10.5305C11.6663 10.3677 11.9854 10.237 12.3163 10.1392L12.4356 9.08061C12.4658 8.8137 12.6935 8.61182 12.9646 8.61182H14.5838C14.8548 8.61182 15.0828 8.8137 15.1127 9.08061L15.232 10.1392C15.5809 10.2423 15.9164 10.382 16.2353 10.5571L17.0329 9.92571C17.2446 9.75809 17.5498 9.77479 17.7414 9.96481L18.8865 11.099C19.0781 11.2888 19.0952 11.5913 18.9259 11.8009L18.2724 12.611C18.4469 12.9364 18.5837 13.2782 18.682 13.633L19.6804 13.7433C19.9499 13.7731 20.1537 13.9988 20.1537 14.2672V15.8711C20.1537 16.1397 19.9499 16.3653 19.6804 16.395L18.6199 16.5123C18.509 16.8546 18.3617 17.1828 18.1794 17.494L18.8273 18.297C18.9965 18.5068 18.9796 18.809 18.7878 18.9988L17.6427 20.133C17.4511 20.3228 17.1457 20.3397 16.9342 20.1721L16.055 19.4762C15.7476 19.6291 15.4267 19.7501 15.095 19.8382L14.9732 20.9195C14.943 21.1862 14.7153 21.388 14.444 21.388ZM13.301 20.3336H13.9679L14.0788 19.3486C14.1047 19.1177 14.2804 18.9307 14.511 18.8886C14.9803 18.8027 15.4265 18.6357 15.8368 18.3925C16.0273 18.2796 16.2688 18.2956 16.4425 18.4332L17.2267 19.054L17.6982 18.5869L17.1109 17.8589C16.9643 17.6773 16.9552 17.4218 17.0887 17.2302C17.3704 16.826 17.5716 16.3801 17.6869 15.9045C17.7392 15.6885 17.9226 15.5284 18.1453 15.5038L19.089 15.3994V14.7388L18.1899 14.6395C17.9579 14.6138 17.77 14.4416 17.7261 14.2147C17.6319 13.727 17.4478 13.2659 17.1792 12.8448C17.0581 12.6548 17.0719 12.4096 17.2134 12.2341L17.7969 11.5109L17.3254 11.0439L16.6101 11.6102C16.4301 11.7528 16.1775 11.7642 15.985 11.6385C15.5702 11.3679 15.1147 11.1779 14.631 11.0742C14.4077 11.0263 14.24 10.8424 14.2147 10.6175L14.1076 9.66649H13.4407L13.3336 10.6175C13.3083 10.8424 13.1406 11.0263 12.9173 11.0742C12.4496 11.1746 12.0076 11.3558 11.6035 11.6126C11.4112 11.7348 11.1619 11.722 10.9836 11.5808L10.1817 10.9459L9.71019 11.4129L10.3513 12.2075C10.4937 12.3841 10.5068 12.631 10.3837 12.8213C10.1338 13.2075 9.95459 13.6295 9.85146 14.0754C9.80089 14.294 9.6166 14.4568 9.39171 14.4818L8.31942 14.6004V15.261L9.37419 15.3777C9.60262 15.4029 9.78892 15.5705 9.83616 15.7933C9.92953 16.234 10.0972 16.6531 10.334 17.0386C10.4503 17.2278 10.4347 17.4688 10.2952 17.6419L9.61172 18.4892L10.0832 18.9562L10.904 18.3064C11.0854 18.1627 11.3403 18.1522 11.5332 18.2807C11.9169 18.5362 12.338 18.7223 12.7845 18.8341C12.9996 18.8879 13.1584 19.0682 13.183 19.2868L13.301 20.3336Z" fill="#59C2B9"/>
</svg>
