<svg width="62" height="62" viewBox="0 0 62 62" fill="none" xmlns="http://www.w3.org/2000/svg">
<path d="M30.925 34.4533C31.6374 34.4533 32.3339 34.2421 32.9263 33.8462C33.5186 33.4504 33.9803 32.8878 34.253 32.2296C34.5256 31.5714 34.597 30.8471 34.458 30.1484C34.319 29.4496 33.9759 28.8078 33.4721 28.304C32.9683 27.8002 32.3265 27.4571 31.6277 27.3181C30.929 27.1792 30.2047 27.2505 29.5465 27.5231C28.8883 27.7958 28.3257 28.2575 27.9299 28.8499C27.534 29.4422 27.3228 30.1387 27.3228 30.8511C27.3244 31.806 27.7045 32.7213 28.3796 33.3965C29.0548 34.0716 29.9701 34.4517 30.925 34.4533ZM30.925 29.7289C31.1469 29.7289 31.3639 29.7947 31.5484 29.9181C31.733 30.0414 31.8768 30.2166 31.9618 30.4217C32.0467 30.6267 32.0689 30.8524 32.0256 31.0701C31.9823 31.2877 31.8754 31.4877 31.7185 31.6446C31.5615 31.8016 31.3616 31.9085 31.1439 31.9518C30.9262 31.9951 30.7006 31.9728 30.4955 31.8879C30.2905 31.803 30.1152 31.6591 29.9919 31.4746C29.8686 31.29 29.8028 31.0731 29.8028 30.8511C29.8124 30.5594 29.9347 30.2828 30.1439 30.0793C30.3532 29.8758 30.6331 29.7614 30.925 29.7599V29.7289ZM60.1394 30.9999C60.1394 26.9389 54.113 24.0683 46.115 22.5059C48.936 14.8799 49.5994 8.21493 46.146 6.10693C43.666 4.58173 39.8592 5.94573 35.2216 10.0501C33.9593 11.1833 32.7569 12.3815 31.6194 13.6399C30.5716 12.3067 29.454 11.0297 28.2714 9.81453C23.9314 5.39393 20.261 3.76953 17.6508 5.11493C15.0406 6.46033 14.2594 10.3787 15.3134 16.4795C15.6852 18.453 16.1717 20.4031 16.7704 22.3199C8.33217 23.8575 1.85938 26.7901 1.85938 30.9999C1.85938 35.0609 7.88578 37.9315 15.8838 39.4939C13.0628 47.1199 12.3994 53.7849 15.8528 55.8929C16.5346 56.3065 17.3184 56.5212 18.1158 56.5129C20.4284 56.5129 23.3734 54.9753 26.7958 51.9621C28.0521 50.8244 29.2482 49.6221 30.3794 48.3599C31.4271 49.6932 32.5447 50.9701 33.7274 52.1853C37.0754 55.6015 40.0266 57.3437 42.4074 57.3437C43.084 57.3516 43.7523 57.1941 44.3542 56.8849C46.9644 55.5395 47.7704 51.6087 46.6854 45.5079C46.3233 43.5393 45.8471 41.5933 45.2594 39.6799C53.6666 38.1423 60.1394 35.2097 60.1394 30.9999ZM36.8646 11.9039C40.1382 9.00853 42.4818 7.99173 43.883 7.99173C44.2229 7.97979 44.5596 8.06127 44.8564 8.22733C46.6172 9.29993 46.4994 14.5203 43.6474 22.0719C41.4836 21.7371 39.2082 21.4891 36.9018 21.3341C35.6618 19.3067 34.4218 17.3971 33.1384 15.6363C34.3096 14.3235 35.5537 13.0774 36.8646 11.9039ZM21.1972 33.4799C21.532 34.1681 21.873 34.8625 22.2264 35.5507C22.679 36.4187 23.1316 37.2743 23.6028 38.1113C22.0817 37.9832 20.635 37.8179 19.2628 37.6153C19.8394 36.2575 20.4594 34.8811 21.1972 33.4799ZM20.0378 24.3101C21.2344 24.1489 22.5178 24.0125 23.8074 23.9009C23.392 24.5519 22.9766 25.2029 22.5674 25.8725C22.1582 26.5421 21.78 27.1869 21.3956 27.8503C20.9058 26.6599 20.4594 25.4695 20.0378 24.3101ZM22.648 30.6961C23.268 29.5429 23.9562 28.3649 24.6878 27.1621C25.4194 25.9593 26.151 24.8247 26.9012 23.7087C28.2238 23.6467 29.5899 23.6157 30.9994 23.6157C32.5308 23.6157 34.0126 23.6529 35.4324 23.7211C36.164 24.9611 36.8749 26.259 37.5652 27.6147C38.1852 28.8547 38.8052 30.0947 39.3508 31.3347C38.7308 32.4879 38.0426 33.6659 37.311 34.8687C36.5794 36.0715 35.8478 37.1999 35.0976 38.2911C33.7749 38.3531 32.4088 38.3841 30.9994 38.3841C29.468 38.3841 27.9862 38.3469 26.5664 38.2787C25.8348 37.0387 25.1238 35.7409 24.4336 34.3851C23.795 33.1513 23.2122 31.9175 22.648 30.6961ZM39.4252 36.1273C39.8282 35.4763 40.2126 34.8129 40.597 34.1495C41.093 35.3461 41.5518 36.5303 41.961 37.6897C40.7644 37.8509 39.481 37.9873 38.1914 38.0989C38.6068 37.4479 39.0222 36.7969 39.4252 36.1273ZM40.8016 28.5509C40.4668 27.8627 40.1258 27.1683 39.7724 26.4801C39.3198 25.6121 38.8672 24.7565 38.396 23.9195C39.9129 24.0477 41.3596 24.213 42.736 24.4155C42.1594 25.7423 41.5394 27.1187 40.8016 28.5509ZM33.901 21.1853C32.9338 21.1481 31.9604 21.1357 30.9994 21.1357C30.2306 21.1357 29.4556 21.1357 28.6806 21.1357C29.6044 19.8957 30.5406 18.6557 31.4768 17.5273C32.2952 18.7053 33.1012 19.9205 33.901 21.1853ZM18.7792 7.30353C19.0301 7.18201 19.3065 7.12247 19.5852 7.12993C20.9616 7.12993 23.3052 8.27693 26.492 11.5381C27.7201 12.7914 28.8752 14.1142 29.9516 15.4999C28.4636 17.2669 26.9818 19.2199 25.5372 21.2783C23.392 21.4147 21.2778 21.6255 19.2442 21.8983C18.6256 19.9659 18.1286 17.9967 17.7562 16.0021C16.7704 10.4965 17.6384 7.89253 18.7792 7.30353ZM4.33938 30.9999C4.33938 28.8733 9.15057 26.1701 17.5454 24.6945C18.2212 26.6227 18.9962 28.6067 19.8828 30.6155C18.7358 32.7979 17.6942 35.0051 16.7828 37.1627C8.87157 35.6623 4.33938 33.0583 4.33938 30.9999ZM25.1342 50.0959C20.9182 53.8159 18.2398 54.4359 17.1424 53.7725C15.3816 52.6999 15.4994 47.4795 18.3514 39.9279C20.5152 40.2627 22.7906 40.5107 25.097 40.6657C26.337 42.6931 27.577 44.6027 28.8604 46.3635C27.6891 47.6764 26.4451 48.9225 25.1342 50.0959ZM28.0978 40.7959C29.065 40.8331 30.0384 40.8455 30.9994 40.8455H33.3182C32.3944 42.0855 31.4582 43.3255 30.522 44.4539C29.7036 43.2945 28.8976 42.0793 28.0978 40.8145V40.7959ZM43.2196 54.6963C42.0726 55.3163 39.45 54.4793 35.5068 50.4617C34.2787 49.2084 33.1236 47.8857 32.0472 46.4999C33.5352 44.7329 35.017 42.7799 36.4616 40.7215C38.6068 40.5851 40.721 40.3743 42.7546 40.1015C43.3731 42.034 43.8701 44.0032 44.2426 45.9977C45.2594 51.5033 44.3604 54.1073 43.2196 54.6963ZM44.4596 37.3363C43.7838 35.4081 43.0088 33.4241 42.1222 31.4153C43.2692 29.2329 44.3108 27.0257 45.2222 24.8681C53.1272 26.3375 57.6594 28.9415 57.6594 30.9999C57.6594 33.0583 52.8482 35.8297 44.4534 37.3053L44.4596 37.3363Z" fill="#61DAFB"/>
</svg>
