<svg width="37" height="37" viewBox="0 0 37 37" fill="none" xmlns="http://www.w3.org/2000/svg">
<path d="M29.7954 3.87007C30.0155 5.43285 31.3578 6.64016 32.9803 6.64016C34.7557 6.64016 36.2002 5.19568 36.2002 3.42007C36.2002 1.64468 34.7557 0.200195 32.9803 0.200195C31.3578 0.200195 30.0155 1.40748 29.7954 2.97007H25.4329C25.2618 2.97007 25.1053 3.06719 25.0295 3.22078L22.2679 8.80815C21.0202 8.2657 19.6451 7.96313 18.2002 7.96313C16.7552 7.96313 15.3801 8.2657 14.1325 8.80815L11.3709 3.22078C11.2951 3.06719 11.1386 2.97007 10.9675 2.97007H6.60495C6.38487 1.40748 5.04256 0.200195 3.42007 0.200195C1.64468 0.200195 0.200195 1.64468 0.200195 3.42007C0.200195 5.19568 1.64468 6.64016 3.42007 6.64016C5.04258 6.64016 6.38489 5.43285 6.60495 3.87007H10.688L13.323 9.2014C10.2571 10.8697 8.13507 14.0598 7.97456 17.7502H6.60495C6.38487 16.1876 5.04256 14.9803 3.42007 14.9803C1.64468 14.9803 0.200195 16.4248 0.200195 18.2002C0.200195 19.9758 1.64468 21.4203 3.42007 21.4203C5.04258 21.4203 6.38489 20.213 6.60495 18.6502H7.97456C8.14553 22.5807 10.5431 25.9412 13.9345 27.5026L10.7209 32.5303H6.60495C6.38489 30.9675 5.04258 29.7602 3.42007 29.7602C1.64468 29.7602 0.200195 31.2047 0.200195 32.9803C0.200195 34.7557 1.64468 36.2002 3.42007 36.2002C5.04256 36.2002 6.38487 34.9929 6.60495 33.4303H10.9675C11.121 33.4303 11.2639 33.3521 11.3467 33.2227L14.7819 27.8483C15.8516 28.2284 17.0018 28.4373 18.2002 28.4373C19.3986 28.4373 20.5488 28.2284 21.6185 27.8483L25.0537 33.2227C25.1365 33.3521 25.2793 33.4303 25.4329 33.4303H29.7954C30.0155 34.9929 31.3578 36.2002 32.9803 36.2002C34.7557 36.2002 36.2002 34.7557 36.2002 32.9803C36.2002 31.2047 34.7557 29.7602 32.9803 29.7602C31.3578 29.7602 30.0155 30.9675 29.7954 32.5303H25.6795L22.4659 27.5026C25.8573 25.9412 28.2549 22.5807 28.4258 18.6502H29.7954C30.0155 20.213 31.3578 21.4203 32.9803 21.4203C34.7557 21.4203 36.2002 19.9758 36.2002 18.2002C36.2002 16.4248 34.7557 14.9803 32.9803 14.9803C31.3578 14.9803 30.0155 16.1876 29.7954 17.7502H28.4258C28.2653 14.0598 26.1433 10.8697 23.0774 9.2014L25.7124 3.87007H29.7954ZM32.9803 1.1002C34.2596 1.1002 35.3002 2.14082 35.3002 3.42007C35.3002 4.69932 34.2596 5.74016 32.9803 5.74016C31.7011 5.74016 30.6602 4.69932 30.6602 3.42007C30.6602 2.14082 31.7011 1.1002 32.9803 1.1002ZM3.42007 5.74016C2.14082 5.74016 1.1002 4.69932 1.1002 3.42007C1.1002 2.14082 2.14082 1.1002 3.42007 1.1002C4.69932 1.1002 5.74016 2.14082 5.74016 3.42007C5.74016 4.69932 4.69932 5.74016 3.42007 5.74016ZM3.42007 35.3002C2.14082 35.3002 1.1002 34.2596 1.1002 32.9803C1.1002 31.7011 2.14082 30.6602 3.42007 30.6602C4.69932 30.6602 5.74016 31.7011 5.74016 32.9803C5.74016 34.2596 4.69932 35.3002 3.42007 35.3002ZM32.9803 30.6602C34.2596 30.6602 35.3002 31.7011 35.3002 32.9803C35.3002 34.2596 34.2596 35.3002 32.9803 35.3002C31.7011 35.3002 30.6602 34.2596 30.6602 32.9803C30.6602 31.7011 31.7011 30.6602 32.9803 30.6602ZM3.42007 20.5203C2.14082 20.5203 1.1002 19.4794 1.1002 18.2002C1.1002 16.9209 2.14082 15.8803 3.42007 15.8803C4.69932 15.8803 5.74016 16.9209 5.74016 18.2002C5.74016 19.4794 4.69932 20.5203 3.42007 20.5203ZM32.9803 15.8803C34.2596 15.8803 35.3002 16.9209 35.3002 18.2002C35.3002 19.4794 34.2596 20.5203 32.9803 20.5203C31.7011 20.5203 30.6602 19.4794 30.6602 18.2002C30.6602 16.9209 31.7011 15.8803 32.9803 15.8803ZM27.5373 18.2002C27.5373 23.3486 23.3486 27.5373 18.2002 27.5373C13.0518 27.5373 8.86313 23.3486 8.86313 18.2002C8.86313 13.0518 13.0518 8.86313 18.2002 8.86313C23.3486 8.86313 27.5373 13.0518 27.5373 18.2002Z" fill="#D1A959"/>
<path d="M15.0942 14.078V15.7539H14.3243C13.5687 15.7539 12.9541 16.3684 12.9541 17.1241V20.144C12.9541 23.0415 15.3113 25.3988 18.2089 25.3988C21.1062 25.3988 23.4634 23.0415 23.4634 20.144V17.1241C23.4634 16.3684 22.8488 15.7539 22.0932 15.7539H21.3233V14.078C21.3233 12.3606 19.9262 10.9634 18.2089 10.9634C16.4915 10.9634 15.0942 12.3606 15.0942 14.078ZM22.5634 17.1241V20.144C22.5634 22.5452 20.61 24.4988 18.2089 24.4988C15.8077 24.4988 13.8541 22.5452 13.8541 20.144V17.1241C13.8541 16.8648 14.065 16.6539 14.3243 16.6539H22.0932C22.3525 16.6539 22.5634 16.8648 22.5634 17.1241ZM18.2089 11.8634C19.4299 11.8634 20.4233 12.8568 20.4233 14.078V15.7539H15.9942V14.078C15.9942 12.8568 16.9876 11.8634 18.2089 11.8634Z" fill="#D1A959"/>
<path d="M17.7503 21.3325V22.4996C17.7503 22.7481 17.9518 22.9496 18.2003 22.9496C18.4488 22.9496 18.6503 22.7481 18.6503 22.4996V21.3325C19.4372 21.1308 20.0231 20.4217 20.0231 19.5729C20.0231 18.5678 19.2053 17.75 18.2003 17.75C17.1953 17.75 16.3774 18.5678 16.3774 19.5729C16.3774 20.4217 16.9634 21.1308 17.7503 21.3325ZM18.2003 18.65C18.7092 18.65 19.1231 19.064 19.1231 19.5729C19.1231 20.0815 18.7092 20.4955 18.2003 20.4955C17.6914 20.4955 17.2774 20.0815 17.2774 19.5729C17.2774 19.064 17.6914 18.65 18.2003 18.65Z" fill="#D1A959"/>
</svg>
