<svg width="62" height="62" viewBox="0 0 62 62" fill="none" xmlns="http://www.w3.org/2000/svg">
<g clip-path="url(#clip0_4833_222)">
<path d="M62 31C62 31.9579 61.957 32.9043 61.8709 33.8394C61.8052 34.5797 61.7114 35.3109 61.5925 36.0335C59.1884 50.7603 46.4064 62 31 62C23.1525 62 15.9872 59.0848 10.5261 54.2765C8.50793 52.5013 6.72252 50.4667 5.22193 48.2246C1.92321 43.2988 0 37.3734 0 31C0 13.8792 13.8792 0 31 0C48.1208 0 62 13.8792 62 31Z" fill="#F2F2F2"/>
<path d="M54.1 34.5086C53.1598 34.8641 53.1978 34.8704 52.7005 33.9645C52.0654 32.8106 51.7275 31.5971 51.6983 30.2774C51.6742 29.1449 51.9842 28.0923 52.374 27.0597C52.6853 26.2386 52.2804 25.9488 51.5693 25.8741C51.0517 25.8209 50.5178 25.826 49.999 25.8792C48.6502 26.0171 48.5173 26.1335 48.1593 27.4431C47.9467 28.22 47.7771 29.0033 47.4241 29.7408C46.5536 31.5565 45.5641 33.3052 44.5493 35.0412C44.3671 35.3538 44.2166 35.6903 43.9597 35.9573C43.2246 34.8565 42.9475 33.6406 42.8855 32.3651C42.8235 31.1061 43.2094 29.9357 43.6333 28.7779C43.7763 28.3882 43.6574 28.1465 43.3207 27.9782C43.1714 27.9036 43.0044 27.834 42.8412 27.8213C41.9757 27.753 41.1128 27.763 40.2688 27.9996C39.8892 28.1046 39.6412 28.3173 39.5564 28.7436C39.3919 29.5775 39.1351 30.3872 38.7883 31.1667C37.8267 33.3253 36.8714 35.4877 35.911 37.6477C35.0759 39.5241 34.2534 41.4056 33.264 43.2074C33.1944 43.3352 33.1362 43.5567 32.9616 43.5124C32.7845 43.468 32.8465 43.2504 32.8388 43.1011C32.7819 42.0383 33.0717 41.0247 33.3184 40.01C33.7094 38.4043 34.137 36.8062 34.5521 35.2056C34.671 34.7463 34.4711 34.4375 34.0902 34.2173C33.5424 33.9022 32.997 33.8871 32.4036 34.3286C32.4846 33.6757 32.52 33.1025 32.4921 32.5294C32.4289 31.2515 31.8367 30.4202 30.8055 30.2278C30.0527 30.0873 29.3403 30.3062 28.6672 30.6251C27.0981 31.3679 25.8367 32.4876 24.7763 33.8465C24.6523 34.0047 24.5271 34.1502 24.3474 34.2476C22.3571 35.332 20.368 36.4164 18.3828 37.5108C18.1652 37.6323 18.0247 37.5981 17.8678 37.4298C16.8681 36.3581 15.7079 35.4737 14.559 34.5766C12.9533 33.3215 11.292 32.1321 9.90646 30.6188C9.09671 29.7331 8.421 28.7625 8.08315 27.591C7.53145 25.6752 7.94402 23.8912 8.86263 22.1957C9.94957 20.1902 11.5616 18.6415 13.3392 17.2623C16.1622 15.0732 19.2583 13.3347 22.5215 11.9037C26.1758 10.3031 29.9666 9.27189 34.0041 9.42749C35.6035 9.48949 37.1559 9.76655 38.5807 10.5498C39.5892 11.104 40.2573 11.9049 40.4458 13.0804C40.6673 14.457 40.337 15.7287 39.7259 16.9346C38.3607 19.6284 36.1907 21.5365 33.6258 23.0308C31.49 24.2746 29.1859 25.0642 26.7476 25.4779C25.4 25.7069 24.0474 25.8448 22.6923 25.6386C21.1372 25.4019 19.6998 24.882 18.6357 23.6292C18.513 23.485 18.3574 23.385 18.1486 23.4862C17.9347 23.59 17.9512 23.7798 17.9714 23.962C17.9866 24.0872 18.0208 24.2138 18.065 24.3328C18.3497 25.1009 18.8824 25.6803 19.5062 26.1865C21.1283 27.5062 23.0503 27.8934 25.0685 27.9327C27.0436 27.9719 28.9884 27.7214 30.913 27.2608C35.2542 26.2233 38.8907 24.0938 41.5454 20.4446C43.132 18.2632 44.1368 15.8591 44.0481 13.1084C43.9912 11.3635 43.404 9.82238 42.1324 8.56979C40.6203 7.083 38.744 6.33524 36.7308 5.88611C34.4886 5.38756 32.2238 5.31672 29.9361 5.59003C27.9458 5.82786 26.001 6.23534 24.1081 6.88695C21.2118 7.88524 18.4143 9.11132 15.7369 10.6019C12.9937 12.1278 10.4086 13.8753 8.14128 16.0642C6.13451 18.0013 4.40989 20.1385 3.43812 22.7918C3.02313 23.928 2.72451 25.0959 3.00291 26.3246C3.35977 27.9062 4.13913 29.2752 5.16407 30.5102C6.71407 32.3803 8.61584 33.8531 10.5771 35.2601C12.1524 36.3912 13.8011 37.4212 15.3144 38.6371C15.7433 38.9813 15.7408 38.9813 15.2359 39.2457C14.6463 39.5532 14.0503 39.8493 13.4709 40.1769C11.134 41.4981 8.87547 42.9304 7.03182 44.9208C6.12458 45.9014 5.50834 47.0023 5.22122 48.2245C6.72182 50.4667 8.50722 52.5013 10.5254 54.2764C13.9683 54.0082 16.6039 52.2165 18.5512 49.2532C19.4914 47.8221 19.9317 46.2026 20.0975 44.4943C20.243 42.9886 20.0898 41.5309 19.647 40.0935C19.5699 39.8404 19.2826 39.5887 19.3952 39.366C19.5002 39.161 19.8167 39.0572 20.0494 38.9231C20.9882 38.3777 21.9296 37.8401 22.8963 37.2846C22.9381 37.4922 22.8571 37.6136 22.8217 37.7451C22.2675 39.7786 21.8815 41.8283 22.3029 43.9414C22.5649 45.2573 23.0014 46.496 23.8314 47.5855C24.6855 48.7066 26.5923 48.5787 27.3666 47.5551C28.1018 46.5833 28.5889 45.4875 29.0963 44.3968C29.3747 43.7996 29.6302 43.1923 29.896 42.5886C29.8466 43.315 29.8491 44.0235 29.8758 44.7296C29.9023 45.4255 30.0137 46.1126 30.3755 46.7275C30.8108 47.4664 31.6295 47.6816 32.3899 47.2867C33.1922 46.8704 33.7388 46.1847 34.1638 45.4407C35.9872 42.2407 37.6788 38.9724 39.0795 35.5599C39.3781 34.8349 39.6844 34.1111 40.0222 33.3051C40.0741 33.5696 40.1083 33.7315 40.1399 33.8935C40.4512 35.5194 41.0054 37.0581 41.8076 38.5043C41.9797 38.8143 41.9607 39.0281 41.7431 39.3254C41.0042 40.3313 40.1943 41.2778 39.3959 42.2343C38.7253 43.0391 38.0078 43.8084 37.441 44.6941C36.9324 45.4913 37.2246 46.3073 38.0712 46.4884C38.3318 46.5441 38.6064 46.5605 38.8734 46.5567C40.3526 46.539 41.7178 46.0973 42.9895 45.3736C44.7014 44.398 45.7163 42.9682 45.6694 40.9323C45.6479 40.0061 45.3973 39.1167 45.0241 38.2675C44.9419 38.079 44.938 37.9424 45.0608 37.7652C46.2465 36.0671 47.294 34.287 48.257 32.4548C48.4278 32.1322 48.548 31.774 48.8238 31.459C48.8605 31.5868 48.8896 31.6666 48.906 31.7488C49.2123 33.2672 49.6247 34.7513 50.3991 36.1065C50.6116 36.4773 50.5054 36.6657 50.2119 36.9137C49.2009 37.7729 48.3482 38.7749 47.6788 39.9227C47.1574 40.816 46.8006 41.7699 46.8045 42.8164C46.8082 43.9805 47.699 44.6663 48.834 44.393C50.0171 44.1095 51.1141 43.6274 52.0984 42.9075C54.2431 41.3373 54.872 39.681 54.2001 37.3693C53.937 36.4595 53.942 36.4748 54.8543 36.1989C56.8497 35.5966 58.8741 35.5713 60.9087 35.9028C61.139 35.9407 61.3668 35.9838 61.5919 36.0331C61.7109 35.3107 61.8045 34.5793 61.8703 33.839C59.2675 33.2028 56.6685 33.533 54.1 34.5086ZM11.9374 50.7867C11.3592 50.9917 10.7582 51.079 10.1432 51.0309C9.37764 50.9702 8.89182 50.43 8.84241 49.6175C8.78671 48.6812 9.06389 47.836 9.47379 47.0135C10.219 45.5205 11.4704 44.507 12.7472 43.5125C13.9884 42.5446 15.3221 41.7182 16.6709 40.9148C17.0796 40.6719 17.0859 40.6744 17.1795 41.1616C17.3009 41.7866 17.4098 42.4129 17.3692 42.9811C17.4757 46.3885 15.0008 49.7023 11.9374 50.7867ZM30.5096 33.6051C30.2945 35.0412 29.8251 36.409 29.3253 37.7603C28.6445 39.6051 27.9815 41.4587 27.1249 43.2327C26.9287 43.6414 26.7225 44.0476 26.405 44.3804C26.1052 44.6954 25.8394 44.6587 25.6319 44.274C25.227 43.5224 25.2776 42.6861 25.2119 42.0787C25.2309 39.0319 26.2533 36.5417 27.9373 34.3034C28.408 33.6797 29.009 33.1723 29.8049 32.9685C30.3451 32.8308 30.5944 33.0484 30.5096 33.6051ZM42.3023 42.6255C41.7253 43.6226 40.894 44.3475 39.8741 44.8638C39.7653 44.9181 39.6249 45.0143 39.5262 44.8865C39.4326 44.7663 39.5832 44.6866 39.6515 44.6107C40.665 43.5035 41.6658 42.3875 42.568 41.1867C42.5819 41.1677 42.6161 41.1652 42.6932 41.1324C42.6844 41.688 42.5629 42.1763 42.3023 42.6255ZM49.3007 42.5825C49.1502 42.6533 48.9755 42.7862 48.8288 42.6723C48.6669 42.5471 48.7313 42.3256 48.7807 42.1561C49.011 41.383 49.321 40.6428 49.7486 39.9532C50.1079 39.3724 50.5534 38.865 51.043 38.3918C51.2404 38.202 51.3289 38.2248 51.396 38.4981C51.4656 38.7777 51.4719 39.0573 51.477 39.342C51.4644 40.8996 50.6735 41.936 49.3007 42.5825Z" fill="#CD6699"/>
</g>
<defs>
<clipPath id="clip0_4833_222">
<rect width="62" height="62" fill="white"/>
</clipPath>
</defs>
</svg>
