<svg width="27" height="30" viewBox="0 0 27 30" fill="none" xmlns="http://www.w3.org/2000/svg">
<path d="M26.0907 3.54795C22.68 3.54795 16.4741 2.87664 14.5302 0.40266C14.1999 -0.0990492 13.4769 -0.143681 13.0822 0.33514C10.7935 2.80867 4.57313 3.54795 0.909322 3.54795C0.407064 3.54795 0 3.94278 0 4.43006V18.5457C0 24.9033 7.57153 28.787 13.3074 29.9946C14.0481 30.1502 27 26.979 27 18.5457V4.43006C27 3.943 26.5929 3.54795 26.0907 3.54795ZM25.1814 18.5457C25.1814 25.1711 15.0365 27.8575 13.4999 28.2258C11.9633 27.8575 1.81864 25.1711 1.81864 18.5457V5.30233C8.84055 5.14555 12.3424 3.19067 13.7346 2.13095C16.5397 4.52894 21.4453 5.22039 25.1814 5.30256V18.5457Z" fill="#E09268"/>
<path d="M8.95673 11.4584V14.1345H8.04433C7.54231 14.1345 7.13501 14.5295 7.13501 15.0166V22.0744C7.13501 22.5617 7.54231 22.9567 8.04433 22.9567H18.9562C19.4585 22.9567 19.8655 22.5617 19.8655 22.0744V15.0166C19.8655 14.5295 19.4585 14.1345 18.9562 14.1345H10.7754V11.4584C10.7754 10.0796 11.8988 8.84111 13.5277 8.84111C15.0153 8.84111 16.2254 10.015 16.2254 11.4584C16.2254 11.9454 16.6327 12.3405 17.1347 12.3405C17.637 12.3405 18.044 11.9454 18.044 11.4584C18.044 9.0423 16.0182 7.07666 13.5277 7.07666C10.88 7.07666 8.95673 9.12195 8.95673 11.4584ZM18.0469 21.1923H8.95365V15.8989H18.0469V21.1923Z" fill="#E09268"/>
<path d="M14.4097 18.5457C14.4097 18.0584 14.0026 17.6636 13.5004 17.6636C12.9984 17.6636 12.5911 18.0584 12.5911 18.5457C12.5911 19.033 12.9984 19.428 13.5004 19.428C14.0026 19.428 14.4097 19.033 14.4097 18.5457Z" fill="#E09268"/>
</svg>
