<svg width="45" height="36" viewBox="0 0 45 36" fill="none" xmlns="http://www.w3.org/2000/svg">
<path d="M0.330757 25.5162L5.29667 20.6058C5.62612 20.2702 6.12432 20.1802 6.50198 20.393L6.86358 20.0247C6.22074 19.1081 5.87522 18.0114 5.87522 16.8657C5.87522 15.368 6.46984 13.9603 7.53052 12.8964C9.73223 10.7194 13.316 10.7194 15.5178 12.8964C16.257 13.633 16.7633 14.5332 16.9963 15.5153C24.6782 13.0355 33.4448 7.72407 35.6546 0.284757C35.7189 0.0719712 35.9358 -0.0426056 36.1448 0.0146828C36.3537 0.0801553 36.4742 0.301125 36.4099 0.513911C34.1118 8.25603 25.0558 13.7557 17.149 16.301C17.165 16.4892 17.1731 16.6774 17.1731 16.8738C17.1731 18.3715 16.5784 19.7792 15.5178 20.8349C14.4169 21.9234 12.9705 22.4636 11.5241 22.4636C10.3992 22.4636 9.28225 22.1362 8.31799 21.4815L7.9564 21.8416C8.15729 22.2262 8.0689 22.7255 7.73141 23.061L2.7655 27.9714C2.36372 28.3643 1.72089 28.4134 1.31108 28.0205L0.274509 26.9893C-0.127266 26.5965 -0.0710144 25.8927 0.330757 25.5162ZM8.90458 20.8922C10.7929 22.0953 13.3321 21.8743 14.9794 20.2539C15.8954 19.3454 16.4017 18.1424 16.4017 16.8575C16.4017 16.7429 16.4017 16.6447 16.3856 16.5301C14.8589 16.9884 13.3964 17.3322 12.0384 17.5613L13.3241 18.3879C13.758 18.658 13.3241 19.3454 12.8982 19.0672L10.7126 17.6595C10.5277 17.5449 10.4715 17.2831 10.592 17.103L11.9661 14.9424C12.2393 14.5005 12.9143 14.9424 12.633 15.3762L11.725 16.8084C13.1312 16.5874 14.674 16.2273 16.2731 15.7444C16.0642 14.8851 15.6222 14.1076 14.9874 13.4693C14.0392 12.5363 12.7937 12.0616 11.5482 12.0616C10.3027 12.0616 9.05726 12.5363 8.10907 13.4693C7.19303 14.3695 6.6868 15.5808 6.6868 16.8657C6.6868 17.7986 6.95197 18.6907 7.4582 19.46C7.81176 20.0165 8.32603 20.5403 8.90458 20.8922ZM7.36981 20.6467L7.15285 20.8595C7.27339 20.9577 7.37785 21.0641 7.47427 21.1787L7.69927 20.9741C7.65105 20.925 7.42606 20.704 7.36981 20.6467ZM0.828953 26.4083L1.87357 27.4313C1.95392 27.5131 2.11462 27.4886 2.21909 27.3822L7.185 22.4717C7.28142 22.3817 7.31356 22.259 7.26535 22.1853C6.97608 21.7597 6.60644 21.3833 6.17253 21.105C6.06003 21.0477 5.9395 21.0886 5.85111 21.1787L0.885201 26.0891C0.788776 26.1791 0.756634 26.3101 0.828953 26.4083Z" fill="#5EB8BF"/>
<path d="M9.6521 34.0439C9.43514 34.0439 9.25836 33.8638 9.25836 33.6429V24.8205C9.25836 24.5995 9.44317 24.4194 9.6521 24.4194H14.0716C14.2966 24.4194 14.4653 24.5995 14.4653 24.8205V33.6511C14.4653 33.8638 14.2886 34.0521 14.0716 34.0521H9.6521V34.0439ZM13.6779 25.2215H10.0458V33.25H13.6779V25.2215Z" fill="#5EB8BF"/>
<path d="M17.9846 34.0441C17.7677 34.0441 17.5909 33.864 17.5909 33.6431V19.6647C17.5909 19.4519 17.7757 19.2637 17.9846 19.2637H22.4041C22.6291 19.2637 22.7979 19.4437 22.7979 19.6647V33.6431C22.7979 33.8559 22.6211 34.0441 22.4041 34.0441H17.9846ZM22.0104 20.0657H18.3784V33.242H22.0104V20.0657Z" fill="#5EB8BF"/>
<path d="M26.3093 34.0438C26.0924 34.0438 25.9156 33.8637 25.9156 33.6428V15.2614C25.9156 15.0404 26.1004 14.8604 26.3093 14.8604H30.7288C30.9538 14.8604 31.1226 15.0404 31.1226 15.2614V33.651C31.1226 33.8637 30.9458 34.052 30.7288 34.052H26.3093V34.0438ZM30.3351 15.6542H26.7031V33.2418H30.3351V15.6542Z" fill="#5EB8BF"/>
<path d="M39.0618 34.0438H34.6423C34.4254 34.0438 34.2486 33.8637 34.2486 33.6427V10.8419C34.2486 10.6292 34.4334 10.4409 34.6423 10.4409H39.0618C39.2868 10.4409 39.4556 10.621 39.4556 10.8419V33.6509C39.4556 33.8637 39.2868 34.0438 39.0618 34.0438ZM38.6681 11.243H35.0361V33.2499H38.6681V11.243Z" fill="#5EB8BF"/>
<path d="M5.14416 35.1978H44.6063C44.8232 35.1978 45 35.3778 45 35.5988C45 35.8197 44.8232 35.9998 44.6063 35.9998H5.14416C4.9272 35.9998 4.75042 35.8197 4.75042 35.5988C4.75042 35.3778 4.9272 35.1978 5.14416 35.1978Z" fill="#5EB8BF"/>
</svg>
