<svg width="36" height="36" viewBox="0 0 36 36" fill="none" xmlns="http://www.w3.org/2000/svg">
<path d="M35.49 17.4899H30.7933V10.4321H32.0897C32.3155 11.2822 33.0914 11.9106 34.0115 11.9106C35.108 11.9106 36.0001 11.0185 36.0001 9.92203C36.0001 8.82556 35.108 7.9335 34.0115 7.9335C33.0914 7.9335 32.3155 8.56182 32.0897 9.41191H30.2832C30.0015 9.41191 29.7731 9.64029 29.7731 9.92203V17.4899H26.5471C26.2653 17.4899 26.0369 17.7183 26.0369 18C26.0369 22.4316 22.4315 26.0369 18 26.0369C13.5685 26.0369 9.9632 22.4316 9.9632 18C9.9632 17.7183 9.73481 17.4899 9.45308 17.4899H6.22699V9.92203C6.22699 9.64029 5.9986 9.41191 5.71687 9.41191H3.91038C3.68454 8.56182 2.90865 7.9335 1.98853 7.9335C0.892058 7.9335 0 8.82556 0 9.92203C0 11.0185 0.892058 11.9106 1.98853 11.9106C2.90865 11.9106 3.68454 11.2822 3.91038 10.4321H5.20675V17.4899H0.510122C0.228389 17.4899 0 17.7183 0 18V19.749C0 20.6637 0.744269 21.4079 1.65906 21.4079C3.04215 21.4079 4.23074 22.2033 4.76105 23.4836C5.29143 24.764 5.01341 26.167 4.03536 27.145C3.72207 27.4583 3.54951 27.875 3.54951 28.3181C3.54951 28.7614 3.72207 29.178 4.03536 29.4913L6.5088 31.9647C7.15571 32.6115 8.20809 32.6115 8.855 31.9647C9.83429 30.9854 11.2377 30.7061 12.5175 31.2363C13.7972 31.7663 14.5921 32.956 14.5921 34.341C14.5921 35.2558 15.3363 36 16.2511 36H19.749C20.6637 36 21.4079 35.2558 21.4079 34.341C21.4079 32.9579 22.2033 31.7693 23.4836 31.239C24.7643 30.7085 26.1671 30.9867 27.1451 31.9647C27.792 32.6115 28.8444 32.6115 29.4913 31.9647L31.9646 29.4913C32.278 29.178 32.4506 28.7614 32.4506 28.3181C32.4506 27.8749 32.278 27.4583 31.9647 27.145C30.9867 26.167 30.7086 24.7641 31.239 23.4836C31.7693 22.2033 32.958 21.4079 34.341 21.4079C35.2558 21.4079 36 20.6637 36 19.7489V18C36.0001 17.7183 35.7717 17.4899 35.49 17.4899ZM34.0115 8.95374C34.5454 8.95374 34.9798 9.38807 34.9798 9.92203C34.9798 10.456 34.5454 10.8903 34.0115 10.8903C33.4777 10.8903 33.0433 10.456 33.0433 9.92203C33.0433 9.38807 33.4777 8.95374 34.0115 8.95374ZM1.98853 10.8902C1.45465 10.8902 1.02024 10.4559 1.02024 9.92196C1.02024 9.388 1.45465 8.95367 1.98853 8.95367C2.52241 8.95367 2.95674 9.388 2.95674 9.92196C2.95674 10.4559 2.52241 10.8902 1.98853 10.8902ZM34.9798 19.749C34.9798 20.1012 34.6933 20.3877 34.3411 20.3877C32.5375 20.3877 30.9877 21.4244 30.2965 23.0932C29.6052 24.7621 29.9679 26.5912 31.2433 27.8665C31.3639 27.9871 31.4303 28.1475 31.4303 28.3182C31.4303 28.4889 31.3639 28.6493 31.2433 28.77L28.77 31.2433C28.5209 31.4924 28.1155 31.4923 27.8665 31.2433C26.5912 29.968 24.7623 29.6052 23.0932 30.2965C21.4244 30.9878 20.3877 32.5375 20.3877 34.3411C20.3877 34.6933 20.1012 34.9798 19.749 34.9798H16.2511C15.8989 34.9798 15.6124 34.6933 15.6124 34.3411C15.6124 32.5355 14.5761 30.9847 12.908 30.2937C12.3489 30.0621 11.772 29.9491 11.2035 29.9491C10.0759 29.9491 8.98238 30.3945 8.13354 31.2433C7.88453 31.4924 7.47912 31.4923 7.23018 31.2433L4.75675 28.7699C4.63614 28.6493 4.56975 28.4889 4.56975 28.3182C4.56975 28.1475 4.63614 27.9871 4.75682 27.8665C6.03213 26.5912 6.3949 24.7621 5.70361 23.0932C5.01232 21.4244 3.46249 20.3877 1.65899 20.3877C1.30679 20.3877 1.02017 20.1012 1.02017 19.749V18.5102H8.95702C9.2228 23.2678 13.1772 27.0572 18 27.0572C22.8229 27.0572 26.7773 23.2677 27.0431 18.5102H34.9798V19.749ZM5.71687 3.97699C6.63699 3.97699 7.41288 3.34866 7.63872 2.49858H11.3483V18C11.3483 21.6678 14.3322 24.6517 18 24.6517C21.6677 24.6517 24.6516 21.6678 24.6516 18V2.49865H28.3612C28.587 3.34874 29.3629 3.97706 30.2831 3.97706C31.3795 3.97706 32.2716 3.085 32.2716 1.98853C32.2716 0.892058 31.3797 0 30.2832 0C29.3631 0 28.5872 0.628325 28.3614 1.47841H24.1416C23.8599 1.47841 23.6315 1.7068 23.6315 1.98853V17.4899H18.5102V7.87717C19.3602 7.65133 19.9885 6.87543 19.9885 5.95532C19.9885 4.85884 19.0965 3.96679 18 3.96679C16.9036 3.96679 16.0115 4.85884 16.0115 5.95532C16.0115 6.87543 16.6399 7.65133 17.4899 7.87717V17.4899H12.3686V1.98853C12.3686 1.7068 12.1402 1.47841 11.8585 1.47841H7.63872C7.41288 0.628325 6.63706 0 5.71687 0C4.6204 0 3.72834 0.892058 3.72834 1.98853C3.72834 3.085 4.6204 3.97699 5.71687 3.97699ZM30.2832 1.02024C30.8171 1.02024 31.2515 1.45458 31.2515 1.98853C31.2515 2.52248 30.8171 2.95682 30.2832 2.95682C29.7493 2.95682 29.315 2.52248 29.315 1.98853C29.315 1.45458 29.7493 1.02024 30.2832 1.02024ZM17.0318 5.95524C17.0318 5.42136 17.4662 4.98696 18 4.98696C18.5339 4.98696 18.9683 5.42129 18.9683 5.95524C18.9683 6.4892 18.5339 6.92353 18 6.92353C17.4662 6.92353 17.0318 6.48912 17.0318 5.95524ZM23.6085 18.5102C23.35 21.3773 20.9333 23.6315 18 23.6315C15.0667 23.6315 12.65 21.3773 12.3915 18.5102H23.6085ZM5.71687 1.02024C6.25075 1.02024 6.68508 1.45458 6.68508 1.98853C6.68508 2.52248 6.25075 2.95682 5.71687 2.95682C5.18299 2.95682 4.74858 2.52248 4.74858 1.98853C4.74858 1.45458 5.18299 1.02024 5.71687 1.02024Z" fill="#6BC6AD"/>
</svg>
