<svg width="30" height="30" viewBox="0 0 30 30" fill="none" xmlns="http://www.w3.org/2000/svg">
<path fill-rule="evenodd" clip-rule="evenodd" d="M6.59535 20.5013C2.96792 20.5013 0 17.5472 0 13.9366C0 10.7293 2.36437 7.9691 5.54351 7.45635C5.5432 7.4282 5.54241 7.4001 5.54241 7.37189C5.54241 3.30053 8.85833 0 12.9487 0C15.4063 0 17.584 1.19181 18.9312 3.02617C19.5706 2.5913 20.3437 2.33682 21.1765 2.33682C23.3772 2.33682 25.1612 4.11256 25.1612 6.303C25.1612 6.7414 25.0896 7.16317 24.9576 7.55745C27.8421 8.25717 30 10.858 30 13.9366C30 17.5472 27.0321 20.5014 23.4046 20.5014H6.59535V20.5013ZM8.03859 26.6482C8.22214 26.6482 8.39871 26.6775 8.56414 26.7316L10.5521 23.9079V21.4763H11.5317V24.0583C11.5317 24.1781 11.4882 24.2879 11.416 24.3728L9.36288 27.2891C9.58794 27.574 9.72227 27.9335 9.72227 28.3241C9.72227 29.2496 8.96847 29.9999 8.03859 29.9999C7.10871 29.9999 6.35492 29.2496 6.35492 28.3241C6.35492 27.3985 7.10871 26.6482 8.03859 26.6482ZM23.3538 21.4763V23.5579L27.151 25.68C27.4536 25.3912 27.8641 25.2137 28.3163 25.2137C29.2462 25.2137 30 25.964 30 26.8895C30 27.8151 29.2462 28.5654 28.3163 28.5654C27.3864 28.5654 26.6327 27.8151 26.6327 26.8895C26.6327 26.7657 26.6462 26.6451 26.6719 26.5288L22.6483 24.2803C22.486 24.2009 22.3742 24.0347 22.3742 23.8425V21.4763L23.3538 21.4763ZM7.62576 21.4763H6.64616V23.5579L2.84896 25.68C2.54651 25.3912 2.13594 25.2137 1.68367 25.2137C0.753796 25.2137 0 25.964 0 26.8895C0 27.8151 0.753796 28.5654 1.68367 28.5654C2.61355 28.5654 3.36735 27.8151 3.36735 26.8895C3.36735 26.7657 3.35369 26.6451 3.3281 26.5288L7.35165 24.2803C7.51396 24.2009 7.62576 24.0347 7.62576 23.8425V21.4763ZM14.5102 26.7203V21.4763H15.4898V26.7204C16.1808 26.9292 16.6837 27.5681 16.6837 28.3241C16.6837 29.2496 15.9299 30 15 30C14.0701 30 13.3163 29.2497 13.3163 28.3241C13.3163 27.5681 13.8193 26.9292 14.5102 26.7203ZM19.4479 21.4763H18.4683V24.0583C18.4683 24.1781 18.5118 24.2879 18.584 24.3728L20.6371 27.2891C20.412 27.574 20.2777 27.9335 20.2777 28.3241C20.2777 29.2496 21.0315 29.9999 21.9614 29.9999C22.8913 29.9999 23.6451 29.2496 23.6451 28.3241C23.6451 27.3985 22.8913 26.6482 21.9614 26.6482C21.7779 26.6482 21.6012 26.6775 21.4359 26.7316L19.4479 23.9079V21.4763ZM17.2538 5.20357C17.7886 5.88629 18.1616 6.72178 18.4207 7.54411H20.3978C19.6155 6.48009 18.5235 5.65611 17.2538 5.20357ZM18.6793 8.51909C18.8467 9.28291 18.9512 10.1127 18.9798 10.9819H21.6671C21.6031 10.1025 21.3672 9.2706 20.9929 8.51909H18.6793ZM18.9798 11.957C18.9512 12.8262 18.8467 13.656 18.6793 14.4198H20.9929C21.367 13.6682 21.6031 12.8364 21.667 11.957H18.9798ZM18.4207 15.3949C18.1617 16.2172 17.7885 17.0526 17.2538 17.7355C18.5235 17.2829 19.6156 16.4589 20.3978 15.3949H18.4207ZM12.7462 17.7355C12.2114 17.0527 11.8384 16.2173 11.5793 15.3949H9.6022C10.3845 16.4589 11.4765 17.2829 12.7462 17.7355ZM11.3207 14.4198C11.1533 13.6561 11.0488 12.8262 11.0202 11.957H8.3329C8.39688 12.8364 8.6329 13.6682 9.00704 14.4198H11.3207ZM11.0202 10.9819C11.0488 10.1127 11.1533 9.28291 11.3207 8.51909H9.00716C8.6329 9.2706 8.39694 10.1026 8.33296 10.9819H11.0202ZM11.5793 7.54404C11.8383 6.72171 12.2114 5.88629 12.7462 5.20351C11.4765 5.65611 10.3845 6.48003 9.6022 7.54404H11.5793ZM15.4898 4.99308V7.54404H17.3916C17.0683 6.62726 16.4305 5.35586 15.4898 4.99308ZM14.5102 4.99308C13.5695 5.35586 12.9317 6.62726 12.6084 7.54404H14.5102V4.99308ZM12.323 8.51909C12.1436 9.27048 12.0309 10.1019 12.0002 10.9819H14.5102V8.51909H12.323ZM12.0002 11.957C12.0309 12.837 12.1436 13.6685 12.323 14.4198H14.5102V11.957H12.0002ZM12.6084 15.3949C12.9317 16.3116 13.5695 17.5831 14.5102 17.9459V15.3949H12.6084ZM15.4898 17.9459C16.4305 17.5831 17.0683 16.3117 17.3916 15.3949H15.4898V17.9459ZM17.6771 14.4198C17.8565 13.6684 17.9692 12.837 17.9998 11.957H15.4898V14.4198H17.6771ZM17.9998 10.9819C17.9692 10.1019 17.8565 9.27048 17.6771 8.51909H15.4898V10.9819H17.9998Z" fill="#C3D979"/>
</svg>
