<svg width="64" height="50" viewBox="0 0 64 50" fill="none" xmlns="http://www.w3.org/2000/svg">
<path fill-rule="evenodd" clip-rule="evenodd" d="M17.2208 14.9791L29.1156 1.31563C29.8419 0.48031 30.8957 0 32 0C33.1043 0 34.1581 0.48031 34.8844 1.31563L46.7792 14.9791L58.1293 7.79535C59.4003 6.99284 61.0226 7.00776 62.2788 7.83711C63.5349 8.66647 64.1898 10.1581 63.9517 11.6468L58.5579 45.4236C58.1382 48.0609 55.867 50 53.2059 50H10.7941C8.133 50 5.86179 48.0609 5.44208 45.4236L0.0483419 11.6468C-0.189792 10.1581 0.465077 8.66647 1.72123 7.83711C2.97739 7.00776 4.59968 6.99284 5.87072 7.79535L17.2208 14.9791ZM4.68005 12.3359L9.85054 44.7166C9.92496 45.182 10.3238 45.5251 10.7941 45.5251H53.2059C53.6762 45.5251 54.075 45.182 54.1495 44.7166L59.3199 12.3359L48.7021 19.0543C47.1066 20.0656 45.014 19.7584 43.7728 18.3353L32 4.80907L20.2272 18.3353C18.986 19.7584 16.8934 20.0656 15.2979 19.0543L4.68005 12.3359Z" fill="url(#paint0_linear_4652_201)"/>
<path fill-rule="evenodd" clip-rule="evenodd" d="M55.9239 34.335C57.1562 34.335 58.1564 35.3373 58.1564 36.5724C58.1564 37.8075 57.1562 38.8099 55.9239 38.8099H8.07675C6.8444 38.8099 5.84424 37.8075 5.84424 36.5724C5.84424 35.3373 6.8444 34.335 8.07675 34.335H55.9239Z" fill="url(#paint1_linear_4652_201)"/>
<defs>
<linearGradient id="paint0_linear_4652_201" x1="106.72" y1="-33.8235" x2="-28.482" y2="48.2347" gradientUnits="userSpaceOnUse">
<stop stop-color="#D324A8"/>
<stop offset="1" stop-color="#551DFF"/>
</linearGradient>
<linearGradient id="paint1_linear_4652_201" x1="93.0747" y1="31.3078" x2="88.3081" y2="57.7291" gradientUnits="userSpaceOnUse">
<stop stop-color="#D324A8"/>
<stop offset="1" stop-color="#551DFF"/>
</linearGradient>
</defs>
</svg>
