<svg width="52" height="72" viewBox="0 0 52 72" fill="none" xmlns="http://www.w3.org/2000/svg">
<path d="M47.2543 12.9712L42.9945 60.6916L23.8466 66.0001L4.75137 60.6991L0.496094 12.9712H47.2543Z" fill="#004CE8"/>
<path d="M39.3513 57.6509L42.9916 16.8716H23.8789V61.9405L39.3513 57.6509Z" fill="#0065F4"/>
<path d="M10.2598 34.5742L10.7844 40.4278H23.8837L26.4016 37.501L23.8837 34.5742H10.2598Z" fill="#EBEBEB"/>
<path d="M23.8813 22.7271H23.861H9.20312L9.73524 28.5807H23.8813L26.3992 25.6538L23.8813 22.7271Z" fill="#EBEBEB"/>
<path d="M23.8846 55.8682L26.4025 52.7641L23.8846 49.778L23.859 49.7848L17.3398 48.0245L16.923 43.356H13.7552H11.0469L11.867 52.547L23.8577 55.8757L23.8846 55.8682Z" fill="#EBEBEB"/>
<path d="M11.5039 0H18.5937V2.96481H14.4687V5.92962H18.5937V8.89443H11.5039V0Z" fill="#1A1A2E"/>
<path d="M20.0117 0H27.1015V2.5781H22.9765V3.09372H27.1015V9.02334H20.0117V6.31634H24.1367V5.80072H20.0117V0Z" fill="#1A1A2E"/>
<path d="M28.5195 0H35.6093V2.5781H31.4843V3.09372H35.6093V9.02334H28.5195V6.31634H32.6445V5.80072H28.5195V0Z" fill="#1A1A2E"/>
<path d="M31.0655 40.4285L30.3861 48.0202L23.8574 49.7824V55.8723L35.8577 52.5465L35.9457 51.5575L37.3213 36.1468L37.4641 34.575L38.5209 22.7271H23.8574V28.5807H32.1058L31.5731 34.575H23.8574V40.4285H31.0655Z" fill="white"/>
</svg>
