<svg width="37" height="36" viewBox="0 0 37 36" fill="none" xmlns="http://www.w3.org/2000/svg">
<path d="M30.9344 10.2619L27.3648 9.61232C27.2813 9.3799 27.186 9.14749 27.0728 8.90912L29.1347 5.91756C29.2717 5.72091 29.2479 5.4587 29.0751 5.29184L26.0478 2.25857C25.8809 2.09171 25.6127 2.06787 25.422 2.19897L22.4186 4.26684C22.1921 4.15958 21.9657 4.06423 21.7273 3.9808L21.0718 0.405231C21.0301 0.16686 20.8274 0 20.5891 0H16.3043C16.066 0 15.8634 0.172819 15.8216 0.405231L15.1661 3.9808C14.9278 4.06423 14.6953 4.16554 14.4748 4.26684L11.4714 2.19897C11.2747 2.06191 11.0125 2.08575 10.8456 2.25857L7.81834 5.29184C7.65148 5.4587 7.62764 5.72091 7.75874 5.91756L9.82065 8.90912C9.71339 9.14749 9.61208 9.3799 9.52865 9.61232L5.95308 10.2619C5.72067 10.3036 5.54785 10.5062 5.54785 10.7446V15.0353C5.54785 15.2736 5.72067 15.4762 5.95308 15.518L9.52865 16.1675C9.61208 16.394 9.70743 16.6264 9.82065 16.8707L7.75874 19.8623C7.62168 20.0589 7.64552 20.3211 7.81834 20.488L10.8456 23.5213C11.0125 23.6881 11.2747 23.712 11.4714 23.5809L14.4689 21.519C14.6894 21.6203 14.9158 21.7156 15.1423 21.7931L15.6071 26.2029H12.7705C11.7693 26.2029 10.9589 27.0134 10.9589 28.0444C10.9589 28.5688 11.1853 29.0336 11.5369 29.3614C11.1853 29.6951 10.9589 30.1718 10.9589 30.7082C10.9589 31.7093 11.7693 32.5198 12.7705 32.5198H14.5046C14.749 34.4804 16.4176 36 18.4437 36C20.4639 36 22.1385 34.4804 22.3828 32.5198H24.1229C25.1241 32.5198 25.9345 31.7093 25.9345 30.6784C25.9345 30.1539 25.7081 29.6891 25.3565 29.3554C25.7081 29.0217 25.9345 28.5449 25.9345 28.0086C25.9345 27.0075 25.1241 26.197 24.1229 26.197H16.5964L16.0839 21.37C16.066 21.1733 15.9289 21.0124 15.7442 20.9528C15.3807 20.8336 15.0052 20.6847 14.6417 20.5059C14.4808 20.4284 14.2901 20.4403 14.1411 20.5416L11.2449 22.532L8.80162 20.0828L10.792 17.1925C10.8933 17.0435 10.9052 16.8528 10.8278 16.6919C10.6311 16.2986 10.4821 15.9351 10.3749 15.5835C10.3212 15.4107 10.1723 15.2796 9.99347 15.2438L6.53709 14.6181V11.1498L9.99347 10.5241C10.1723 10.4943 10.3212 10.3632 10.3749 10.1904C10.4881 9.83877 10.643 9.46333 10.8337 9.08194C10.9112 8.92104 10.8993 8.73034 10.798 8.58136L8.80758 5.69111L11.2509 3.24185L14.153 5.23821C14.302 5.33951 14.4987 5.35143 14.6596 5.268C14.9993 5.08922 15.3628 4.94024 15.7442 4.8151C15.917 4.76146 16.0481 4.61248 16.0779 4.4337L16.7096 0.977322H20.1719L20.8036 4.4337C20.8334 4.61248 20.9645 4.76146 21.1373 4.8151C21.5187 4.93428 21.8822 5.08922 22.2219 5.268C22.3828 5.35143 22.5795 5.33951 22.7284 5.23821L25.6306 3.24185L28.0739 5.69111L26.0835 8.58136C25.9822 8.73034 25.9703 8.92104 26.0478 9.08194C26.2385 9.46333 26.3934 9.83281 26.5066 10.1904C26.5603 10.3632 26.7092 10.4943 26.888 10.5241L30.3384 11.1498V14.6181L26.888 15.2438C26.7092 15.2736 26.5603 15.4047 26.5066 15.5835C26.3994 15.9351 26.2504 16.2927 26.0537 16.686C25.9763 16.8469 25.9882 17.0376 26.0895 17.1866L28.0799 20.0768L25.6366 22.5261L22.7404 20.5357C22.5914 20.4344 22.4007 20.4224 22.2398 20.4999C21.8763 20.6847 21.5068 20.8336 21.1373 20.9469C20.9526 21.0065 20.8155 21.1674 20.7976 21.364L20.4878 24.3437C20.458 24.6118 20.6546 24.8561 20.9287 24.8859C21.1969 24.9098 21.4412 24.7191 21.471 24.445L21.7511 21.7812C21.9776 21.6977 22.1981 21.6083 22.4245 21.507L25.422 23.5689C25.6187 23.7001 25.8809 23.6762 26.0478 23.5094L29.0751 20.4761C29.2419 20.3092 29.2658 20.047 29.1347 19.8504L27.0728 16.8588C27.186 16.6145 27.2813 16.3821 27.3648 16.1556L30.9344 15.506C31.1668 15.4643 31.3396 15.2617 31.3396 15.0233V10.7327C31.3396 10.5062 31.1668 10.3036 30.9344 10.2619ZM18.4437 35.0227C16.9658 35.0227 15.7323 33.944 15.4998 32.5317H21.3936C21.1552 33.9381 19.9216 35.0227 18.4437 35.0227ZM24.9453 30.7201C24.9453 31.173 24.5758 31.5484 24.117 31.5484H21.918H14.9635H12.7705C12.3176 31.5484 11.9422 31.1789 11.9422 30.6903C11.9422 30.2374 12.3116 29.8619 12.7705 29.8619H24.117C24.5699 29.8619 24.9453 30.2314 24.9453 30.7201ZM24.9453 28.0503C24.9453 28.5032 24.5758 28.8787 24.117 28.8787H12.7705C12.3176 28.8787 11.9422 28.5092 11.9422 28.0205C11.9422 27.5676 12.3116 27.1922 12.7705 27.1922H24.117C24.5699 27.1922 24.9453 27.5617 24.9453 28.0503Z" fill="#E597B4"/>
<path d="M21.3103 19.3736C21.4414 19.314 21.5725 19.2544 21.6976 19.1888C21.7572 19.159 21.8168 19.1292 21.8764 19.0994C22.0552 18.9981 22.234 18.8909 22.4068 18.7776C22.4068 18.7776 22.4128 18.7717 22.4187 18.7717C22.6213 18.6346 22.812 18.4976 23.0027 18.3367C23.0146 18.3247 23.0266 18.3069 23.0385 18.2949C24.57 16.9958 25.5473 15.0531 25.5473 12.8899C25.5473 8.98059 22.3651 5.79834 18.4558 5.79834C14.5465 5.79834 11.3643 8.98059 11.3643 12.8899C11.3643 15.0471 12.3356 16.9779 13.8612 18.283C13.8791 18.3009 13.891 18.3247 13.9148 18.3426C14.2724 18.6346 14.6538 18.8909 15.053 19.1114L15.1603 19.165C15.3093 19.2425 15.4642 19.3199 15.6192 19.3855C15.6967 19.4212 15.7682 19.451 15.8456 19.4808C15.9648 19.5285 16.084 19.5762 16.2092 19.6119L16.4952 19.7013L16.8349 19.7907C16.9362 19.8146 17.0375 19.8384 17.1388 19.8563C17.2639 19.8801 17.3891 19.898 17.5142 19.9159C17.6096 19.9278 17.699 19.9457 17.7943 19.9516C17.991 19.9695 18.1936 19.9814 18.3962 19.9814C18.42 19.9814 18.4379 19.9874 18.4618 19.9874C18.4916 19.9874 18.5273 19.9814 18.5571 19.9814C18.7478 19.9814 18.9385 19.9695 19.1232 19.9516C19.2245 19.9397 19.3259 19.9278 19.4272 19.9099C19.5463 19.892 19.6596 19.8801 19.7728 19.8563C19.886 19.8324 19.9933 19.8086 20.1065 19.7848C20.2078 19.7609 20.3151 19.7371 20.4164 19.7073C20.5237 19.6775 20.625 19.6417 20.7322 19.606C20.8395 19.5702 20.9468 19.5285 21.054 19.4868C21.1315 19.451 21.2209 19.4153 21.3103 19.3736ZM20.6727 18.575C20.5654 18.6167 20.4581 18.6585 20.3508 18.6942C20.2674 18.724 20.184 18.7419 20.1006 18.7657C20.0052 18.7896 19.9158 18.8194 19.8205 18.8372C19.7311 18.8551 19.6477 18.879 19.5583 18.8909C19.457 18.9088 19.3556 18.9266 19.2484 18.9385C19.165 18.9505 19.0875 18.9624 19.0041 18.9683C18.8432 18.9803 18.6822 18.9922 18.5154 18.9922C18.4916 18.9922 18.4677 18.9981 18.4439 18.9981C18.426 18.9981 18.4141 18.9981 18.3962 18.9981C18.2234 18.9981 18.0506 18.9862 17.8837 18.9743C17.8122 18.9683 17.7347 18.9564 17.6632 18.9445C17.55 18.9326 17.4427 18.9147 17.3295 18.8909C17.2461 18.873 17.1686 18.8611 17.0852 18.8432C16.9779 18.8194 16.8766 18.7896 16.7693 18.7598C16.6978 18.7419 16.6203 18.7181 16.5488 18.6942C16.4177 18.6525 16.2866 18.6048 16.1615 18.5512C16.1257 18.5333 16.084 18.5214 16.0482 18.5095C15.5655 18.3009 15.1126 18.0268 14.7015 17.7109C14.767 15.7027 16.4177 14.0937 18.4379 14.0937C20.4581 14.0937 22.1148 15.7027 22.1803 17.7109C21.7751 18.0268 21.3282 18.3009 20.8455 18.5035C20.7978 18.5274 20.7322 18.5512 20.6727 18.575ZM18.4498 13.1044C17.544 13.1044 16.7991 12.3655 16.7991 11.4537C16.7991 10.5419 17.5381 9.80297 18.4498 9.80297C19.3616 9.80297 20.1006 10.5419 20.1006 11.4537C20.1006 12.3655 19.3556 13.1044 18.4498 13.1044ZM12.3416 12.8899C12.3416 9.52289 15.0828 6.78162 18.4498 6.78162C21.8168 6.78162 24.5581 9.52289 24.5581 12.8899C24.5581 14.4035 23.9979 15.792 23.0802 16.8588C22.7524 15.2855 21.6381 14.0043 20.1721 13.4262C20.7263 12.9435 21.0838 12.2403 21.0838 11.4477C21.0838 9.99367 19.9039 8.81373 18.4498 8.81373C16.9958 8.81373 15.8158 9.99367 15.8158 11.4477C15.8158 12.2403 16.1734 12.9435 16.7276 13.4262C15.2616 14.0043 14.1472 15.2855 13.8195 16.8588C12.9018 15.798 12.3416 14.4095 12.3416 12.8899Z" fill="#E597B4"/>
<path d="M32.1382 8.23002C32.2633 8.23002 32.3885 8.18234 32.4838 8.087L34.7066 5.86418C34.8973 5.67349 34.8973 5.35765 34.7066 5.16695C34.5159 4.97625 34.2001 4.97625 34.0094 5.16695L31.7866 7.38976C31.5959 7.58046 31.5959 7.8963 31.7866 8.087C31.8819 8.18234 32.0071 8.23002 32.1382 8.23002Z" fill="#E597B4"/>
<path d="M32.4838 16.9184C32.2931 16.7277 31.9773 16.7277 31.7866 16.9184C31.5959 17.1091 31.5959 17.425 31.7866 17.6156L34.0094 19.8385C34.1047 19.9338 34.2299 19.9815 34.355 19.9815C34.4802 19.9815 34.6053 19.9338 34.7007 19.8385C34.8914 19.6478 34.8914 19.3319 34.7007 19.1412L32.4838 16.9184Z" fill="#E597B4"/>
<path d="M36.3931 12.0142H32.8057C32.5315 12.0142 32.311 12.2347 32.311 12.5088C32.311 12.7829 32.5315 13.0034 32.8057 13.0034H36.3931C36.6673 13.0034 36.8878 12.7829 36.8878 12.5088C36.8878 12.2347 36.6613 12.0142 36.3931 12.0142Z" fill="#E597B4"/>
<path d="M4.40392 16.9184L2.18111 19.1412C1.99041 19.3319 1.99041 19.6478 2.18111 19.8385C2.27646 19.9338 2.4016 19.9815 2.52675 19.9815C2.65189 19.9815 2.77704 19.9338 2.87238 19.8385L5.0952 17.6156C5.28589 17.425 5.28589 17.1091 5.0952 16.9184C4.91046 16.7277 4.59462 16.7277 4.40392 16.9184Z" fill="#E597B4"/>
<path d="M2.87834 5.16695C2.68765 4.97625 2.37181 4.97625 2.18111 5.16695C1.99041 5.35765 1.99041 5.67349 2.18111 5.86418L4.40392 8.087C4.49927 8.18234 4.62441 8.23002 4.74956 8.23002C4.8747 8.23002 4.99985 8.18234 5.0952 8.087C5.28589 7.8963 5.28589 7.58046 5.0952 7.38976L2.87834 5.16695Z" fill="#E597B4"/>
<path d="M4.58268 12.5024C4.58268 12.2283 4.36219 12.0078 4.08806 12.0078H0.49462C0.220493 12.0078 0 12.2283 0 12.5024C0 12.7766 0.220493 12.9971 0.49462 12.9971H4.08806C4.36219 12.9971 4.58268 12.7766 4.58268 12.5024Z" fill="#E597B4"/>
</svg>
