<svg width="39" height="50" viewBox="0 0 39 50" fill="none" xmlns="http://www.w3.org/2000/svg">
<path d="M5.51602 41.2662L2.29886 39.5601L9.88489 35.5369L18.6927 40.2081C18.9074 40.322 19.1651 40.3221 19.3799 40.2081L22.6221 38.4886C22.98 38.2989 23.1163 37.8549 22.9264 37.497C22.7366 37.139 22.2927 37.0027 21.9348 37.1926L19.0362 38.7299L2.29886 29.8534L7.22944 27.2386C7.58726 27.0489 7.72358 26.6049 7.53377 26.247C7.34405 25.889 6.89998 25.7527 6.54216 25.9426L0.389762 29.2055C-0.129025 29.4806 -0.129514 30.226 0.389762 30.5014L8.31943 34.7068L0.389762 38.9121C-0.129025 39.1872 -0.129514 39.9327 0.389762 40.2081L4.82874 42.5621C5.18519 42.751 5.62966 42.6173 5.82035 42.2578C6.01017 41.8999 5.87385 41.4559 5.51602 41.2662Z" fill="white"/>
<path d="M37.683 29.2054L31.5306 25.9426C31.1725 25.7528 30.7288 25.8891 30.539 26.2469C30.3492 26.6047 30.4855 27.0487 30.8433 27.2385L35.7739 29.8534L24.7673 35.6905C24.4095 35.8802 24.2731 36.3242 24.4629 36.6821C24.6528 37.0402 25.0968 37.1762 25.4546 36.9864L28.1879 35.5369L35.7739 39.5599L19.0364 48.4364L8.36334 42.7761C8.00532 42.5864 7.56154 42.7227 7.37172 43.0804C7.18201 43.4383 7.31823 43.8822 7.67605 44.0721L18.6926 49.9145C18.9073 50.0285 19.165 50.0286 19.3798 49.9145L37.6828 40.2079C38.2016 39.9328 38.2021 39.1873 37.6828 38.912L29.7531 34.7066L37.6828 30.5012C38.2017 30.2263 38.2022 29.4807 37.683 29.2054Z" fill="white"/>
<path d="M31.9642 16.9076C31.9642 16.4353 31.5367 16.1501 31.1875 16.1501C30.7889 16.1501 30.4534 16.4722 30.4534 16.8832C30.4534 17.3544 30.8789 17.6407 31.2299 17.6407C31.6288 17.6406 31.9642 17.3185 31.9642 16.9076Z" fill="white"/>
<path d="M35.0448 18.5413C35.0448 18.0358 34.5443 17.7563 34.2162 17.7563C33.7896 17.7563 33.4819 18.1054 33.4819 18.4894C33.4819 18.9949 33.9823 19.2744 34.3105 19.2744C34.7364 19.2744 35.0448 18.9259 35.0448 18.5413Z" fill="white"/>
<path d="M37.2965 19.3899C36.8669 19.3899 36.5623 19.7416 36.5623 20.1233C36.5623 20.1311 36.5624 20.1389 36.5626 20.1466C36.5624 20.1543 36.5623 20.1622 36.5623 20.1699C36.5623 20.5572 36.873 20.9033 37.2966 20.9033C37.6749 20.903 38.0729 20.5967 38.0729 20.1466C38.0729 19.6769 37.6486 19.3899 37.2965 19.3899Z" fill="white"/>
<path d="M29.5348 23.5518C29.1982 23.5518 28.7207 23.8324 28.7207 24.3291C28.7207 24.7155 29.0312 25.0621 29.4549 25.0621C29.7915 25.0621 30.269 24.7814 30.269 24.2847C30.2689 23.8985 29.9588 23.5518 29.5348 23.5518Z" fill="white"/>
<path d="M24.3073 26.3242C23.9714 26.3242 23.4932 26.6043 23.4932 27.1016C23.4932 27.4879 23.8037 27.8345 24.2274 27.8345C24.564 27.8345 25.0415 27.5539 25.0415 27.0572C25.0414 26.671 24.7312 26.3242 24.3073 26.3242Z" fill="white"/>
<path d="M26.9211 24.938C26.5845 24.938 26.1069 25.2187 26.1069 25.7153C26.1069 26.1017 26.4174 26.4483 26.8412 26.4483C27.1778 26.4483 27.6553 26.1676 27.6553 25.6709C27.6553 25.2848 27.345 24.938 26.9211 24.938Z" fill="white"/>
<path d="M32.0688 23.6758C32.4054 23.6758 32.883 23.3952 32.883 22.8985C32.883 22.5122 32.5727 22.1655 32.1488 22.1655C31.8129 22.1655 31.3347 22.4456 31.3347 22.9429C31.3346 23.3292 31.6452 23.6758 32.0688 23.6758Z" fill="white"/>
<path d="M21.6934 27.7102C21.3563 27.7102 20.8792 27.9916 20.8792 28.4875C20.8792 28.901 21.2167 29.2205 21.6134 29.2205C21.9494 29.2205 22.4275 28.9403 22.4275 28.4434C22.4275 28.0298 22.0899 27.7102 21.6934 27.7102Z" fill="white"/>
<path d="M34.6827 22.2896C35.0193 22.2896 35.4968 22.0089 35.4968 21.5122C35.4968 21.126 35.1862 20.7793 34.7626 20.7793C34.4262 20.7793 33.9485 21.0599 33.9485 21.5566C33.9485 21.943 34.259 22.2896 34.6827 22.2896Z" fill="white"/>
<path d="M18.2593 29.8296C18.2593 30.3212 18.6835 30.4923 18.6933 30.5015C19.188 30.7634 19.8137 30.3845 19.8137 29.8296C19.8137 28.8498 18.2593 28.853 18.2593 29.8296Z" fill="white"/>
<path d="M5.18994 22.8987C5.18994 23.3749 5.64673 23.6758 6.00406 23.6758C6.40305 23.6758 6.73828 23.3533 6.73828 22.9428C6.73828 22.4461 6.26047 22.1655 5.92397 22.1655C5.52439 22.1655 5.18994 22.4887 5.18994 22.8987Z" fill="white"/>
<path d="M16.3794 27.7104C15.9519 27.7104 15.6453 28.0603 15.6453 28.4434C15.6453 28.9395 16.122 29.2208 16.4594 29.2208C16.8903 29.2208 17.1936 28.8677 17.1936 28.4878C17.1935 27.992 16.7172 27.7104 16.3794 27.7104Z" fill="white"/>
<path d="M8.53784 23.5518C8.11048 23.5518 7.80371 23.9017 7.80371 24.2847C7.80371 24.7808 8.28045 25.0621 8.61783 25.0621C9.0487 25.0621 9.35205 24.709 9.35205 24.3291C9.35205 23.8331 8.87532 23.5518 8.53784 23.5518Z" fill="white"/>
<path d="M2.57617 21.5122C2.57617 21.9894 3.03364 22.2896 3.39029 22.2896C3.82116 22.2896 4.12451 21.9366 4.12451 21.5566C4.12451 21.0608 3.64827 20.7793 3.3103 20.7793C2.88285 20.7793 2.57617 21.1291 2.57617 21.5122Z" fill="white"/>
<path d="M11.1519 24.938C10.7245 24.938 10.4177 25.2878 10.4177 25.6709C10.4177 26.167 10.8945 26.4483 11.2318 26.4483C11.6627 26.4483 11.9661 26.0953 11.9661 25.7153C11.9661 25.2195 11.4897 24.938 11.1519 24.938Z" fill="white"/>
<path d="M13.7656 26.3242C13.3383 26.3242 13.0315 26.674 13.0315 27.0572C13.0315 27.5533 13.5082 27.8345 13.8456 27.8345C14.2765 27.8345 14.5798 27.4815 14.5798 27.1016C14.5798 26.6262 14.1242 26.3242 13.7656 26.3242Z" fill="white"/>
<path d="M0.776371 20.9034C1.20333 20.9034 1.51069 20.5544 1.51069 20.17C1.51069 20.1623 1.51059 20.1544 1.5103 20.1467C1.51059 20.139 1.51069 20.1312 1.51069 20.1234C1.51069 19.7361 1.19991 19.3899 0.776469 19.3899C0.417278 19.3899 0 19.6822 0 20.1467C0 20.6219 0.425591 20.9034 0.776371 20.9034Z" fill="white"/>
<path d="M3.25288 19.5447C3.59124 19.5447 4.06514 19.2632 4.06514 18.7683C4.06514 18.3565 3.72912 18.0352 3.33091 18.0352C2.99275 18.0352 2.51855 18.3167 2.51855 18.8116C2.51865 19.1967 2.82777 19.5447 3.25288 19.5447Z" fill="white"/>
<path d="M5.80722 18.1897C6.14421 18.1897 6.61948 17.9096 6.61948 17.4135C6.61948 16.9999 6.2821 16.6804 5.88545 16.6804C5.54749 16.6804 5.073 16.9614 5.073 17.4568C5.073 17.8711 5.41136 18.1897 5.80722 18.1897Z" fill="white"/>
<path d="M0.389762 11.088L8.41683 15.345C7.89961 15.3358 7.42131 15.8944 7.71283 16.4447C8.16932 17.307 9.51191 16.6019 9.05277 15.7351C9.03801 15.7072 9.02128 15.6813 9.00368 15.6562L18.6928 20.7946C18.9075 20.9085 19.1652 20.9086 19.38 20.7946L37.683 11.0879C38.2018 10.8128 38.2023 10.0674 37.683 9.79197L19.3799 0.0855192C19.1651 -0.0285064 18.9076 -0.0285064 18.6927 0.0855192L15.6737 1.68667C15.3158 1.87639 15.1795 2.32036 15.3694 2.67828C15.5591 3.0362 16.0032 3.17252 16.361 2.98261L19.0364 1.56365L35.7739 10.4401L19.0364 19.3166L2.29876 10.44L13.5285 4.4846C13.8863 4.29488 14.0227 3.85091 13.8329 3.49299C13.643 3.13507 13.1994 2.99884 12.8412 3.18866L0.389762 9.79207C-0.129025 10.0672 -0.129514 10.8127 0.389762 11.088Z" fill="white"/>
</svg>
