<svg width="51" height="50" viewBox="0 0 51 50" fill="none" xmlns="http://www.w3.org/2000/svg">
<g clip-path="url(#clip0_4833_229)">
<path d="M1 0H51V50H1V0Z" fill="#FFDF00"/>
<path d="M29.4223 29.3731C30.4294 31.0176 31.7397 32.2263 34.0572 32.2263C36.004 32.2263 37.2477 31.2532 37.2477 29.9088C37.2477 28.2977 35.9699 27.727 33.8271 26.7897L32.6524 26.2857C29.2619 24.8413 27.0096 23.0317 27.0096 19.2063C27.0096 15.6825 29.6945 13 33.8905 13C36.8778 13 39.0255 14.0396 40.573 16.7619L36.9144 19.1111C36.1088 17.6667 35.2397 17.0977 33.8905 17.0977C32.5144 17.0977 31.6421 17.9707 31.6421 19.1111C31.6421 20.5207 32.5151 21.0913 34.531 21.9644L35.7056 22.4675C39.6977 24.1794 41.9516 25.9246 41.9516 29.8484C41.9516 34.0786 38.6285 36.3961 34.1658 36.3961C29.8023 36.3961 26.9833 34.3167 25.6039 31.5913L29.4223 29.3731ZM12.8246 29.7803C13.5627 31.0898 14.2342 32.197 15.8484 32.197C17.3921 32.197 18.3659 31.593 18.3659 29.2446V13.2684H23.0644V29.308C23.0644 34.173 20.212 36.3874 16.0484 36.3874C12.2865 36.3874 10.108 34.4405 9 32.0957L12.8246 29.7803Z" fill="#1A1A2E"/>
</g>
<defs>
<clipPath id="clip0_4833_229">
<rect width="50" height="50" fill="white" transform="translate(0.5)"/>
</clipPath>
</defs>
</svg>
