<svg width="49" height="49" viewBox="0 0 49 49" fill="none" xmlns="http://www.w3.org/2000/svg">
<g clip-path="url(#clip0_4529_499)">
<path d="M0 30.9655C0.294631 37.7959 9.9967 37.7959 10.2913 30.9655V25.8198H5.14566C3.78162 25.822 2.47408 26.3649 1.50955 27.3294C0.545031 28.2939 0.00219476 29.6015 0 30.9655Z" fill="#E1185A"/>
<path d="M30.9652 23.1845C32.3293 23.1801 33.6362 22.636 34.6004 21.6711C35.5646 20.7061 36.1076 19.3988 36.1109 18.0347V5.14979C35.8163 -1.68067 26.1142 -1.68482 25.8154 5.14979V18.0596C25.8253 19.4201 26.3718 20.7217 27.3361 21.6814C28.3005 22.6411 29.6047 23.1813 30.9652 23.1845Z" fill="#2BB77D"/>
<path d="M18.0348 25.8198C16.6708 25.822 15.3632 26.3649 14.3987 27.3294C13.4342 28.2939 12.8914 29.6014 12.8892 30.9655V43.8545C13.1838 50.6808 22.8859 50.685 23.1805 43.8545V30.9655C23.1783 29.6014 22.6355 28.2939 21.6709 27.3294C20.7064 26.3649 19.3989 25.822 18.0348 25.8198Z" fill="#E1185A"/>
<path d="M49.0001 18.0348C48.7013 11.2085 39.0034 11.2085 38.7046 18.0348V23.1846H43.8544C45.2185 23.1802 46.5254 22.6361 47.4896 21.6711C48.4537 20.7062 48.9968 19.3989 49.0001 18.0348Z" fill="#2BB77D"/>
<path d="M5.1457 23.1846H18.0347C24.8611 22.8859 24.8694 13.1879 18.0347 12.8892H5.1457C-1.68061 13.1838 -1.68475 22.8859 5.1457 23.1846Z" fill="#33C6F1"/>
<path d="M30.9652 38.7046H25.8154V43.8544C25.8187 45.2192 26.3623 46.5272 27.3274 47.4922C28.2925 48.4573 29.6004 49.0009 30.9652 49.0042C37.7957 48.7054 37.7916 39.0034 30.9652 38.7046Z" fill="#EDB429"/>
<path d="M43.8544 25.8198H30.9654C24.1349 26.1145 24.1349 35.8165 30.9654 36.1112H43.8544C50.6807 35.8165 50.6849 26.1145 43.8544 25.8198Z" fill="#EDB429"/>
<path d="M18.0347 0C11.2043 0.298781 11.2043 9.9967 18.0347 10.2955H23.1804V5.14567C23.1771 3.78196 22.6339 2.47505 21.6696 1.51076C20.7053 0.546473 19.3984 0.00328737 18.0347 0Z" fill="#33C6F1"/>
</g>
<defs>
<clipPath id="clip0_4529_499">
<rect width="49" height="49" fill="white"/>
</clipPath>
</defs>
</svg>
