<svg width="56" height="56" viewBox="0 0 56 56" fill="none" xmlns="http://www.w3.org/2000/svg">
<g clip-path="url(#clip0_4833_207)">
<path d="M5.46875 0H50.5312C53.5515 0 56 2.44847 56 5.46875V50.5312C56 53.5515 53.5515 56 50.5312 56H5.46875C2.44847 56 0 53.5515 0 50.5312V5.46875C0 2.44847 2.44847 0 5.46875 0Z" fill="#3178C6"/>
<path d="M5.46875 0H50.5312C53.5515 0 56 2.44847 56 5.46875V50.5312C56 53.5515 53.5515 56 50.5312 56H5.46875C2.44847 56 0 53.5515 0 50.5312V5.46875C0 2.44847 2.44847 0 5.46875 0Z" fill="#3178C6"/>
<path fill-rule="evenodd" clip-rule="evenodd" d="M30.759 33.5308V39.0062C31.649 39.4625 32.7018 39.8046 33.9172 40.0328C35.1325 40.2609 36.4134 40.375 37.76 40.375C40.0809 40.375 42.6215 40.043 44.6071 38.758C46.5829 37.4793 47.5 35.3521 47.5 33.0517C47.5 31.3414 46.9694 29.6956 45.7711 28.4491C43.9742 26.5798 41.449 25.8217 39.1807 24.7103C38.0444 24.1536 36.4762 23.2893 36.4762 21.8271C36.4762 21.4507 36.5732 21.1114 36.7673 20.8091C37.5473 19.5936 39.2799 19.3461 40.6016 19.3461C42.1019 19.3461 43.6848 19.682 45.0779 20.3043C45.5629 20.521 46.0107 20.7719 46.4216 21.0572V15.9411C45.5886 15.6217 44.6785 15.385 43.6913 15.231C42.7042 15.077 41.5715 15 40.2935 15C38.9925 15 37.76 15.1398 36.5961 15.4192C35.4321 15.6987 34.4079 16.135 33.5234 16.7281C32.639 17.3214 31.9401 18.077 31.4266 18.9954C30.9131 19.9136 30.6562 21.0115 30.6562 22.2891C30.6562 23.9203 31.127 25.312 32.0685 26.4641C33.0099 27.6162 34.4392 28.5915 36.3564 29.39C37.6462 29.9174 38.9872 30.438 40.1479 31.2209C40.9524 31.7634 41.6799 32.5199 41.6799 33.5478C41.6799 34.2939 41.2582 34.9264 40.6444 35.3188C39.7362 35.8994 38.5732 36.0289 37.5203 36.0289C36.3335 36.0289 35.1581 35.8207 33.994 35.4043C32.8302 34.9881 31.7517 34.3635 30.759 33.5308ZM21.5541 20.0402H28.5781V15.5469H9V20.0402H15.9897V40.0469H21.5541V20.0402Z" fill="white"/>
</g>
<defs>
<clipPath id="clip0_4833_207">
<rect width="56" height="56" fill="white"/>
</clipPath>
</defs>
</svg>
