<svg width="104" height="26" viewBox="0 0 104 26" fill="none" xmlns="http://www.w3.org/2000/svg">
<g clip-path="url(#clip0_4325_89)">
<path fill-rule="evenodd" clip-rule="evenodd" d="M33.8638 20.1848L35.1492 17.3196C36.5377 18.3155 38.3877 18.8332 40.2129 18.8332C41.5601 18.8332 42.413 18.3353 42.413 17.5804C42.3924 15.4701 34.3417 17.122 34.2799 11.8304C34.2593 9.14303 36.7478 7.07222 40.2747 7.07222C42.3718 7.07222 44.4648 7.57016 45.9604 8.70437L44.7573 11.6288C43.3895 10.791 41.6879 10.1943 40.0687 10.1943C38.9686 10.1943 38.2434 10.6922 38.2434 11.3285C38.264 13.3993 46.3765 12.2651 46.4589 17.3196C46.4589 20.0662 44.0322 21.9987 40.5466 21.9987C37.9921 21.9948 35.6478 21.4178 33.8638 20.1848ZM83.2268 16.2842C82.5841 17.3591 81.381 18.0942 79.9884 18.0942C77.9325 18.0942 76.2762 16.5016 76.2762 14.5335C76.2762 12.5654 77.9366 10.9728 79.9884 10.9728C81.3769 10.9728 82.5841 11.7078 83.2268 12.7828L86.7742 10.8937C85.4475 8.62533 82.8931 7.07222 79.9884 7.07222C75.6911 7.07222 72.2055 10.4156 72.2055 14.5374C72.2055 18.6593 75.6911 22.0027 79.9884 22.0027C82.9137 22.0027 85.4475 20.4693 86.7742 18.1811L83.2268 16.2842ZM48.243 0.879517H52.6844V21.7181H48.243V0.879517ZM88.517 0.879517V21.7181H92.9585V15.4661L98.2281 21.7181H103.914L97.2104 14.2924L103.415 7.36466H97.9768L92.9544 13.1147V0.879517H88.517Z" fill="black"/>
<path d="M65.8818 16.3237C65.2391 17.3393 63.9124 18.0942 62.4168 18.0942C60.3609 18.0942 58.7046 16.5015 58.7046 14.5335C58.7046 12.5654 60.365 10.9728 62.4168 10.9728C63.9124 10.9728 65.2391 11.7671 65.8818 12.8025V16.3237ZM65.8818 7.36859V9.06002C65.1567 7.88629 63.3521 7.06824 61.461 7.06824C57.5592 7.06824 54.4897 10.3721 54.4897 14.5137C54.4897 18.6553 57.5592 21.9987 61.461 21.9987C63.348 21.9987 65.1526 21.1846 65.8818 20.0069V21.6983H70.3233V7.36859H65.8818Z" fill="black"/>
<path fill-rule="evenodd" clip-rule="evenodd" d="M6.4109 16.3038C6.4109 17.7581 5.18723 18.9319 3.67103 18.9319C2.15483 18.9319 0.931152 17.7542 0.931152 16.3038C0.931152 14.8535 2.15483 13.6758 3.67103 13.6758H6.4109V16.3038ZM7.77878 16.3038C7.77878 14.8495 9.00245 13.6758 10.5187 13.6758C12.0349 13.6758 13.2585 14.8495 13.2585 16.3038V22.872C13.2585 24.3263 12.0349 25.5 10.5187 25.5C9.00245 25.5 7.77878 24.3263 7.77878 22.872V16.3038Z" fill="#E01E5A"/>
<path fill-rule="evenodd" clip-rule="evenodd" d="M10.5192 5.75609C9.00303 5.75609 7.77936 4.58236 7.77936 3.12804C7.77936 1.67373 9.00303 0.5 10.5192 0.5C12.0354 0.5 13.2591 1.67373 13.2591 3.12804V5.75609H10.5192ZM10.5192 7.08789C12.0354 7.08789 13.2591 8.26162 13.2591 9.71593C13.2591 11.1703 12.0354 12.344 10.5192 12.344H3.65101C2.13481 12.344 0.911133 11.1663 0.911133 9.71593C0.911133 8.26557 2.13481 7.08789 3.65101 7.08789H10.5192Z" fill="#36C5F0"/>
<path fill-rule="evenodd" clip-rule="evenodd" d="M21.4961 9.71593C21.4961 8.26162 22.7197 7.08789 24.2359 7.08789C25.7521 7.08789 26.9758 8.26162 26.9758 9.71593C26.9758 11.1703 25.7521 12.344 24.2359 12.344H21.4961V9.71593ZM20.1282 9.71593C20.1282 11.1703 18.9045 12.344 17.3883 12.344C15.8721 12.344 14.6484 11.1703 14.6484 9.71593V3.12804C14.6484 1.67373 15.8721 0.5 17.3883 0.5C18.9045 0.5 20.1282 1.67373 20.1282 3.12804V9.71593Z" fill="#2EB67D"/>
<path fill-rule="evenodd" clip-rule="evenodd" d="M17.3883 20.244C18.9045 20.244 20.1282 21.4178 20.1282 22.8721C20.1282 24.3264 18.9045 25.5001 17.3883 25.5001C15.8721 25.5001 14.6484 24.3264 14.6484 22.8721V20.244H17.3883ZM17.3883 18.932C15.8721 18.932 14.6484 17.7583 14.6484 16.3039C14.6484 14.8496 15.8721 13.6759 17.3883 13.6759H24.2565C25.7727 13.6759 26.9964 14.8496 26.9964 16.3039C26.9964 17.7583 25.7727 18.932 24.2565 18.932H17.3883Z" fill="#ECB22E"/>
</g>
<defs>
<clipPath id="clip0_4325_89">
<rect width="103.003" height="25" fill="white" transform="translate(0.911133 0.5)"/>
</clipPath>
</defs>
</svg>
