<svg width="1920" height="231" viewBox="0 0 1920 231" fill="none" xmlns="http://www.w3.org/2000/svg">
<mask id="mask0_4811_99" style="mask-type:alpha" maskUnits="userSpaceOnUse" x="0" y="0" width="1920" height="231">
<rect width="1920" height="231" fill="black"/>
</mask>
<g mask="url(#mask0_4811_99)">
<rect width="1920" height="231" fill="#013228"/>
<g filter="url(#filter0_d_4811_99)">
<rect x="1883.71" y="173.28" width="100" height="100" rx="15" transform="rotate(45 1883.71 173.28)" fill="white" fill-opacity="0.1" shape-rendering="crispEdges"/>
</g>
<g filter="url(#filter1_d_4811_99)">
<rect x="1911.99" y="173" width="100" height="100" rx="15" transform="rotate(45 1911.99 173)" fill="white" fill-opacity="0.1" shape-rendering="crispEdges"/>
</g>
<rect x="13.7109" y="-58.7202" width="100" height="100" rx="15" transform="rotate(45 13.7109 -58.7202)" fill="white" fill-opacity="0.1"/>
<rect x="41.9932" y="-59" width="100" height="100" rx="15" transform="rotate(45 41.9932 -59)" fill="white" fill-opacity="0.1"/>
<g filter="url(#filter2_f_4811_99)">
<circle cx="1847" cy="19" r="192" fill="white"/>
</g>
<g filter="url(#filter3_f_4811_99)">
<circle cx="108" cy="273" r="192" fill="white"/>
</g>
<g opacity="0.08">
<path d="M1582.05 339.245C1583.9 339.381 1585.76 339.494 1587.62 339.583C1591.01 339.745 1594.41 339.826 1597.82 339.826C1612.16 339.826 1626.49 338.381 1640.42 335.531C1654 332.753 1667.35 328.608 1680.11 323.211C1692.63 317.913 1704.72 311.355 1716.02 303.719C1727.21 296.157 1737.74 287.471 1747.31 277.904C1756.87 268.337 1765.56 257.81 1773.12 246.616C1780.76 235.314 1787.32 223.231 1792.61 210.704C1798.01 197.946 1802.16 184.593 1804.93 171.02C1807.78 157.091 1809.23 142.757 1809.23 128.413C1809.23 114.069 1807.78 99.7339 1804.93 85.8064C1802.16 72.2321 1798.01 58.8803 1792.61 46.1215C1787.32 33.5941 1780.76 21.5119 1773.12 10.2098C1765.56 -0.985283 1756.87 -11.5124 1747.31 -21.0787C1737.74 -30.6453 1727.21 -39.3306 1716.02 -46.894C1704.72 -54.5291 1692.63 -61.0871 1680.11 -66.3861C1667.35 -71.7826 1654 -75.9275 1640.42 -78.7048C1626.49 -81.5553 1612.16 -83 1597.82 -83C1594.4 -83 1590.98 -82.918 1587.57 -82.7549C1585.74 -82.6668 1583.92 -82.5564 1582.09 -82.4217C1582.07 -82.1067 1582.05 -81.7874 1582.03 -81.4637C1583.89 -81.6036 1585.76 -81.7184 1587.64 -81.8072C1591.01 -81.9686 1594.4 -82.0505 1597.82 -82.0505C1713.87 -82.0505 1808.28 12.3633 1808.28 128.413C1808.28 244.463 1713.87 338.877 1597.82 338.877C1594.42 338.877 1591.04 338.796 1587.69 338.636C1585.78 338.546 1583.87 338.429 1581.98 338.287L1582.05 339.245Z" fill="white" fill-opacity="0.62"/>
<path d="M1636.21 315.108C1648.45 312.603 1660.49 308.865 1672 304C1683.29 299.222 1694.18 293.31 1704.37 286.427C1714.46 279.612 1723.95 271.784 1732.57 263.164C1741.19 254.543 1749.01 245.056 1755.83 234.967C1762.71 224.779 1768.63 213.887 1773.4 202.593C1778.27 191.087 1782.01 179.047 1784.51 166.806C1787.08 154.252 1788.38 141.335 1788.38 128.412C1788.38 115.489 1787.08 102.572 1784.51 90.0172C1782.01 77.777 1778.27 65.7363 1773.4 54.2314C1768.63 42.9371 1762.71 32.0442 1755.83 21.8562C1749.01 11.7676 1741.19 2.28139 1732.57 -6.33925C1723.95 -14.9608 1714.46 -22.7875 1704.37 -29.6035C1694.18 -36.486 1683.29 -42.3986 1672 -47.1754C1660.49 -52.042 1648.45 -55.7796 1636.21 -58.2841C1623.66 -60.8532 1610.74 -62.1555 1597.82 -62.1555C1594.8 -62.1555 1591.79 -62.0847 1588.78 -61.9441C1586.14 -61.8198 1583.51 -61.642 1580.88 -61.4099C1580.58 -54.8614 1580.29 -47.5818 1580.02 -39.649C1583.2 -39.9847 1586.41 -40.2306 1589.64 -40.3843C1592.35 -40.5146 1595.08 -40.5802 1597.82 -40.5802C1691 -40.5802 1766.81 35.2295 1766.81 128.412C1766.81 221.595 1691 297.404 1597.82 297.404C1595.08 297.404 1592.37 297.339 1589.66 297.209C1586.42 297.056 1583.2 296.809 1580 296.472C1580.27 304.394 1580.55 311.674 1580.85 318.232C1583.5 318.466 1586.15 318.645 1588.81 318.769C1591.81 318.91 1594.81 318.98 1597.82 318.98C1610.74 318.98 1623.66 317.677 1636.21 315.108Z" fill="white" fill-opacity="0.62"/>
</g>
<g opacity="0.08">
<path d="M1719.03 128.057L1654.98 128.057C1654.98 128.057 1678.28 113.534 1695.51 113.534C1712.74 113.534 1719.03 128.057 1719.03 128.057Z" fill="#F19250"/>
<path d="M1715.46 124.48C1715.46 124.48 1710.5 119.386 1701.04 119.386C1686.71 119.386 1679.58 128.057 1679.58 128.057L1715.46 128.057L1715.46 124.48Z" fill="#F5CC48"/>
<path d="M1719.03 128.057L1654.98 128.057C1654.98 128.057 1678.28 142.58 1695.51 142.58C1712.74 142.58 1719.03 128.057 1719.03 128.057Z" fill="#E1884A"/>
<path d="M1715.46 131.634C1715.46 131.634 1710.5 136.728 1701.04 136.728C1686.71 136.728 1679.58 128.057 1679.58 128.057L1715.46 128.057L1715.46 131.634Z" fill="#E2BD41"/>
<path d="M1708.49 142.035L1708.49 114.173C1708.49 113.403 1709.12 112.779 1709.89 112.779L1713.83 112.779C1714.6 112.779 1715.22 113.403 1715.22 114.173L1715.22 142.035C1715.22 142.805 1714.6 143.43 1713.83 143.43L1709.89 143.43C1709.12 143.43 1708.49 142.805 1708.49 142.035Z" fill="#C6C6C5"/>
<path d="M1717.65 143.43L1717.65 112.779L1710.92 112.779L1710.92 143.43L1717.65 143.43Z" fill="#B8B7B7"/>
<path d="M1843.87 128.104L1712.07 128.104L1712.07 110.226C1712.07 110.226 1752.67 100.948 1790.46 100.948C1799.78 100.948 1807.75 102.6 1814.47 105.087L1814.47 105.088C1820.1 107.171 1824.85 109.843 1828.78 112.622L1828.78 112.622L1828.78 112.623C1839.2 119.983 1843.87 128.104 1843.87 128.104Z" fill="white"/>
<path d="M1790.46 155.259C1752.67 155.259 1712.07 145.981 1712.07 145.981L1712.07 128.104L1843.87 128.104C1843.87 128.104 1839.33 135.986 1829.24 143.256C1825.28 146.112 1820.46 148.874 1814.72 151.026C1807.95 153.567 1799.9 155.259 1790.46 155.259Z" fill="#F1F2F3"/>
<path d="M1814.72 151.026C1815.68 145.492 1816.67 137.5 1816.65 128.104C1816.63 121.072 1816.05 113.252 1814.47 105.088C1820.1 107.172 1824.85 109.843 1828.78 112.623L1828.78 112.623L1828.78 112.623C1829.64 117.044 1830.31 122.296 1830.4 128.104C1830.48 132.837 1830.16 137.938 1829.24 143.256C1825.28 146.112 1820.46 148.873 1814.72 151.026Z" fill="#F15A29"/>
<path d="M1785.39 128.104C1785.39 135.015 1790.99 140.617 1797.9 140.617C1804.81 140.617 1810.42 135.015 1810.42 128.104C1810.42 121.193 1804.81 115.591 1797.9 115.591C1790.99 115.591 1785.39 121.193 1785.39 128.104Z" fill="#F15A29"/>
<path d="M1797.91 139.329C1791.71 139.329 1786.68 134.303 1786.68 128.104C1786.68 124.414 1788.46 121.14 1791.21 119.094C1793.08 117.703 1795.4 116.88 1797.91 116.88C1804.1 116.88 1809.13 121.905 1809.13 128.104C1809.13 132.715 1806.35 136.677 1802.37 138.404C1801 138.999 1799.49 139.329 1797.91 139.329Z" fill="#30B4A7"/>
<path d="M1797.91 139.328C1791.71 139.328 1786.68 134.303 1786.68 128.103C1786.68 124.413 1788.46 121.139 1791.21 119.093C1792.58 118.498 1794.09 118.168 1795.68 118.168C1801.88 118.168 1806.91 123.193 1806.91 129.392C1806.91 133.083 1805.12 136.357 1802.38 138.403C1801.01 138.998 1799.49 139.328 1797.91 139.328Z" fill="#4FC1B7"/>
<path d="M1744.36 128.104L1690.48 128.104C1690.48 128.104 1708.58 124.062 1718.94 124.062C1729.29 124.062 1742.17 124.483 1744.36 128.104Z" fill="#F15A29"/>
<path d="M1744.36 128.104L1690.48 128.104C1690.48 128.104 1708.58 132.146 1718.94 132.146C1729.29 132.146 1742.17 131.725 1744.36 128.104Z" fill="#E25626"/>
<path d="M1814.72 151.027C1815.68 145.492 1816.67 137.5 1816.65 128.104L1830.41 128.104C1830.48 132.837 1830.16 137.938 1829.24 143.256C1825.28 146.112 1820.46 148.874 1814.72 151.027Z" fill="#E05526"/>
<path d="M1827.2 113.49C1827.2 113.72 1827.39 113.907 1827.62 113.907C1827.85 113.907 1828.04 113.72 1828.04 113.49C1828.04 113.259 1827.85 113.073 1827.62 113.073C1827.39 113.073 1827.2 113.259 1827.2 113.49Z" fill="white"/>
<path d="M1828.45 120.156C1828.22 120.156 1828.04 119.969 1828.04 119.738C1828.04 119.508 1828.22 119.321 1828.45 119.321C1828.69 119.321 1828.87 119.508 1828.87 119.738C1828.87 119.969 1828.69 120.156 1828.45 120.156Z" fill="white"/>
<path d="M1828.45 125.989C1828.45 126.219 1828.64 126.406 1828.87 126.406C1829.1 126.406 1829.29 126.219 1829.29 125.989C1829.29 125.759 1829.1 125.572 1828.87 125.572C1828.64 125.572 1828.45 125.759 1828.45 125.989Z" fill="white"/>
<path d="M1816.43 107.987C1816.43 108.218 1816.61 108.405 1816.84 108.405C1817.07 108.405 1817.26 108.218 1817.26 107.987C1817.26 107.757 1817.07 107.57 1816.84 107.57C1816.61 107.57 1816.43 107.757 1816.43 107.987Z" fill="white"/>
<path d="M1817.26 114.236C1817.26 114.466 1817.45 114.653 1817.68 114.653C1817.91 114.653 1818.1 114.466 1818.1 114.236C1818.1 114.006 1817.91 113.819 1817.68 113.819C1817.45 113.819 1817.26 114.006 1817.26 114.236Z" fill="white"/>
<path d="M1817.68 120.486C1817.68 120.717 1817.86 120.904 1818.09 120.904C1818.32 120.904 1818.51 120.717 1818.51 120.486C1818.51 120.256 1818.32 120.069 1818.09 120.069C1817.86 120.069 1817.68 120.256 1817.68 120.486Z" fill="white"/>
<path d="M1817.88 125.988C1817.88 126.218 1818.06 126.405 1818.29 126.405C1818.52 126.405 1818.71 126.218 1818.71 125.988C1818.71 125.758 1818.52 125.571 1818.29 125.571C1818.06 125.571 1817.88 125.758 1817.88 125.988Z" fill="white"/>
<path d="M1827.2 142.877C1827.2 143.107 1827.39 143.294 1827.62 143.294C1827.85 143.294 1828.04 143.107 1828.04 142.877C1828.04 142.647 1827.85 142.46 1827.62 142.46C1827.39 142.46 1827.2 142.647 1827.2 142.877Z" fill="white"/>
<path d="M1828.45 136.211C1828.22 136.211 1828.04 136.398 1828.04 136.629C1828.04 136.859 1828.22 137.046 1828.45 137.046C1828.69 137.046 1828.87 136.859 1828.87 136.629C1828.87 136.398 1828.69 136.211 1828.45 136.211Z" fill="white"/>
<path d="M1828.45 130.378C1828.45 130.608 1828.64 130.795 1828.87 130.795C1829.1 130.795 1829.29 130.608 1829.29 130.378C1829.29 130.148 1829.1 129.961 1828.87 129.961C1828.64 129.961 1828.45 130.148 1828.45 130.378Z" fill="white"/>
<path d="M1816.43 148.379C1816.43 148.609 1816.61 148.796 1816.84 148.796C1817.07 148.796 1817.26 148.609 1817.26 148.379C1817.26 148.148 1817.07 147.961 1816.84 147.961C1816.61 147.961 1816.43 148.148 1816.43 148.379Z" fill="white"/>
<path d="M1817.68 141.713C1817.45 141.713 1817.26 141.9 1817.26 142.13C1817.26 142.361 1817.45 142.547 1817.68 142.547C1817.91 142.547 1818.1 142.361 1818.1 142.13C1818.1 141.9 1817.91 141.713 1817.68 141.713Z" fill="white"/>
<path d="M1817.68 135.88C1817.68 136.11 1817.86 136.297 1818.09 136.297C1818.32 136.297 1818.51 136.11 1818.51 135.88C1818.51 135.649 1818.32 135.463 1818.09 135.463C1817.86 135.463 1817.68 135.649 1817.68 135.88Z" fill="white"/>
<path d="M1817.88 130.378C1817.88 130.608 1818.06 130.795 1818.29 130.795C1818.52 130.795 1818.71 130.608 1818.71 130.378C1818.71 130.148 1818.52 129.961 1818.29 129.961C1818.06 129.961 1817.88 130.148 1817.88 130.378Z" fill="white"/>
<path d="M1714.05 112.021L1706.89 108.207L1690.48 99.4752C1690.48 99.4752 1721.63 90.6344 1727.27 93.6657C1730.1 95.1835 1734.38 97.9037 1737.95 100.242C1741.51 102.574 1744.36 104.527 1744.36 104.527L1714.05 112.021Z" fill="#F15A29"/>
<path d="M1714.05 112.021L1706.89 108.208L1737.95 100.242C1741.51 102.574 1744.36 104.527 1744.36 104.527L1714.05 112.021Z" fill="#E25626"/>
<path d="M1738.27 104.186C1737.99 104.186 1737.77 103.961 1737.77 103.685C1737.77 103.408 1737.99 103.183 1738.27 103.183C1738.55 103.183 1738.77 103.408 1738.77 103.685C1738.77 103.961 1738.55 104.186 1738.27 104.186Z" fill="white"/>
<path d="M1731.57 105.783C1731.29 105.783 1731.07 105.559 1731.07 105.282C1731.07 105.005 1731.29 104.781 1731.57 104.781C1731.84 104.781 1732.07 105.005 1732.07 105.282C1732.07 105.559 1731.84 105.783 1731.57 105.783Z" fill="white"/>
<path d="M1724.08 107.441C1723.81 107.441 1723.58 107.217 1723.58 106.94C1723.58 106.663 1723.81 106.439 1724.08 106.439C1724.36 106.439 1724.59 106.663 1724.59 106.94C1724.59 107.217 1724.36 107.441 1724.08 107.441Z" fill="white"/>
<path d="M1717.08 109.138C1716.81 109.138 1716.58 108.913 1716.58 108.637C1716.58 108.36 1716.81 108.135 1717.08 108.135C1717.36 108.135 1717.59 108.36 1717.59 108.637C1717.59 108.913 1717.36 109.138 1717.08 109.138Z" fill="white"/>
<path d="M1714.05 144.2L1706.89 148.014L1690.48 156.746C1690.48 156.746 1721.63 165.587 1727.27 162.555C1730.1 161.037 1734.38 158.317 1737.95 155.979C1741.51 153.647 1744.36 151.694 1744.36 151.694L1714.05 144.2Z" fill="#E25626"/>
<path d="M1714.05 144.2L1706.89 148.014L1737.95 155.979C1741.51 153.647 1744.36 151.694 1744.36 151.694L1714.05 144.2Z" fill="#C74D28"/>
<path d="M1738.27 152.035C1737.99 152.035 1737.77 152.259 1737.77 152.536C1737.77 152.813 1737.99 153.037 1738.27 153.037C1738.55 153.037 1738.77 152.813 1738.77 152.536C1738.77 152.259 1738.55 152.035 1738.27 152.035Z" fill="white"/>
<path d="M1731.57 150.438C1731.29 150.438 1731.07 150.662 1731.07 150.939C1731.07 151.216 1731.29 151.44 1731.57 151.44C1731.84 151.44 1732.07 151.216 1732.07 150.939C1732.07 150.662 1731.84 150.438 1731.57 150.438Z" fill="white"/>
<path d="M1724.08 148.78C1723.81 148.78 1723.58 149.004 1723.58 149.281C1723.58 149.558 1723.81 149.782 1724.08 149.782C1724.36 149.782 1724.59 149.558 1724.59 149.281C1724.59 149.004 1724.36 148.78 1724.08 148.78Z" fill="white"/>
<path d="M1717.08 147.083C1716.81 147.083 1716.58 147.307 1716.58 147.584C1716.58 147.861 1716.81 148.085 1717.08 148.085C1717.36 148.085 1717.59 147.861 1717.59 147.584C1717.59 147.307 1717.36 147.083 1717.08 147.083Z" fill="white"/>
</g>
</g>
<defs>
<filter id="filter0_d_4811_99" x="1815.21" y="179.493" width="136.995" height="136.995" filterUnits="userSpaceOnUse" color-interpolation-filters="sRGB">
<feFlood flood-opacity="0" result="BackgroundImageFix"/>
<feColorMatrix in="SourceAlpha" type="matrix" values="0 0 0 0 0 0 0 0 0 0 0 0 0 0 0 0 0 0 127 0" result="hardAlpha"/>
<feOffset dy="4"/>
<feGaussianBlur stdDeviation="2"/>
<feComposite in2="hardAlpha" operator="out"/>
<feColorMatrix type="matrix" values="0 0 0 0 0 0 0 0 0 0 0 0 0 0 0 0 0 0 0.25 0"/>
<feBlend mode="normal" in2="BackgroundImageFix" result="effect1_dropShadow_4811_99"/>
<feBlend mode="normal" in="SourceGraphic" in2="effect1_dropShadow_4811_99" result="shape"/>
</filter>
<filter id="filter1_d_4811_99" x="1843.5" y="179.213" width="136.994" height="136.995" filterUnits="userSpaceOnUse" color-interpolation-filters="sRGB">
<feFlood flood-opacity="0" result="BackgroundImageFix"/>
<feColorMatrix in="SourceAlpha" type="matrix" values="0 0 0 0 0 0 0 0 0 0 0 0 0 0 0 0 0 0 127 0" result="hardAlpha"/>
<feOffset dy="4"/>
<feGaussianBlur stdDeviation="2"/>
<feComposite in2="hardAlpha" operator="out"/>
<feColorMatrix type="matrix" values="0 0 0 0 0 0 0 0 0 0 0 0 0 0 0 0 0 0 0.25 0"/>
<feBlend mode="normal" in2="BackgroundImageFix" result="effect1_dropShadow_4811_99"/>
<feBlend mode="normal" in="SourceGraphic" in2="effect1_dropShadow_4811_99" result="shape"/>
</filter>
<filter id="filter2_f_4811_99" x="895" y="-933" width="1904" height="1904" filterUnits="userSpaceOnUse" color-interpolation-filters="sRGB">
<feFlood flood-opacity="0" result="BackgroundImageFix"/>
<feBlend mode="normal" in="SourceGraphic" in2="BackgroundImageFix" result="shape"/>
<feGaussianBlur stdDeviation="380" result="effect1_foregroundBlur_4811_99"/>
</filter>
<filter id="filter3_f_4811_99" x="-844" y="-679" width="1904" height="1904" filterUnits="userSpaceOnUse" color-interpolation-filters="sRGB">
<feFlood flood-opacity="0" result="BackgroundImageFix"/>
<feBlend mode="normal" in="SourceGraphic" in2="BackgroundImageFix" result="shape"/>
<feGaussianBlur stdDeviation="380" result="effect1_foregroundBlur_4811_99"/>
</filter>
</defs>
</svg>
