<svg width="194" height="36" viewBox="0 0 194 36" fill="none" xmlns="http://www.w3.org/2000/svg">
<path d="M33.6492 25.9731C33.6492 28.1893 32.7703 30.1997 31.3478 31.6507C29.9288 33.1052 27.9627 34.004 25.7955 34.004C21.4574 34.004 17.9418 30.409 17.9418 25.9731C17.9418 23.7569 17.0628 21.7465 15.6404 20.2955C14.2214 18.841 12.2553 17.9422 10.0881 17.9422C5.74998 17.9422 2.23434 14.3473 2.23434 9.91136C2.23434 7.6952 3.11325 5.68478 4.53575 4.23381C5.95471 2.77923 7.92078 1.88049 10.0881 1.88049C12.2553 1.88049 14.2214 2.77923 15.6404 4.23381C17.0628 5.68478 17.9418 7.6952 17.9418 9.91136C17.9418 14.3473 21.4574 17.9422 25.7955 17.9422C27.9627 17.9422 29.9288 18.841 31.3478 20.2955C32.7703 21.7465 33.6492 23.7569 33.6492 25.9731Z" fill="url(#paint0_linear_4675_1209)"/>
<path d="M33.6492 25.9731C33.6492 28.1893 32.7702 30.1997 31.3478 31.6507C31.1148 31.8925 30.8642 32.1163 30.603 32.322C31.2207 31.1778 31.5737 29.8568 31.5737 28.4564C31.5737 26.2402 30.6948 24.2298 29.2723 22.7788C27.8533 21.3242 25.8872 20.4255 23.72 20.4255C19.3819 20.4255 15.8663 16.8305 15.8663 12.3946C15.8663 10.1785 14.9873 8.16803 13.5648 6.71706C12.1459 5.26248 10.1798 4.36375 8.01254 4.36375C6.20178 4.36375 4.53221 4.99178 3.20502 6.04572C3.56152 5.37798 4.01333 4.768 4.53574 4.23381C5.9547 2.77923 7.92077 1.88049 10.088 1.88049C12.2553 1.88049 14.2214 2.77923 15.6403 4.23381C17.0628 5.68478 17.9417 7.6952 17.9417 9.91136C17.9417 14.3473 21.4574 17.9422 25.7955 17.9422C27.9627 17.9422 29.9288 18.841 31.3478 20.2955C32.7702 21.7465 33.6492 23.7569 33.6492 25.9731Z" fill="url(#paint1_linear_4675_1209)"/>
<path d="M22.594 13.712C21.0621 12.1456 20.2926 10.0882 20.2961 8.03448C20.2926 5.98074 21.0621 3.92339 22.594 2.35692C25.6613 -0.779629 30.6347 -0.779629 33.7021 2.35692C35.234 3.92339 36.0035 5.98074 36 8.03448C36.0035 10.0882 35.234 12.1456 33.7021 13.712C32.1702 15.2785 30.1582 16.0653 28.1498 16.0617C26.1378 16.0653 24.1259 15.2785 22.594 13.712Z" fill="url(#paint2_linear_4675_1209)"/>
<path d="M36 8.03087C36 10.247 35.121 12.2575 33.6986 13.7084C33.0279 14.3942 32.2372 14.9573 31.3619 15.3579C32.6008 13.9394 33.3526 12.0662 33.3526 10.016C33.3526 7.80348 32.4737 5.78944 31.0512 4.33847C29.6323 2.8875 27.6662 1.98516 25.4989 1.98516C24.3553 1.98516 23.2646 2.23782 22.2833 2.6926C22.3822 2.5771 22.4881 2.4616 22.5939 2.35332C24.0129 0.902345 25.979 0 28.1462 0C30.3135 0 32.2796 0.902345 33.6986 2.35332C35.121 3.80429 36 5.81832 36 8.03087Z" fill="url(#paint3_linear_4675_1209)"/>
<path d="M2.29787 33.6539C0.765954 32.0874 -0.00353293 30.03 -3.17046e-06 27.9727C-0.00353293 25.919 0.765954 23.8616 2.29787 22.2951C5.36523 19.1586 10.3387 19.1586 13.406 22.2951C14.9379 23.8616 15.7074 25.919 15.7039 27.9727C15.7074 30.0264 14.9379 32.0838 13.406 33.6503C11.8741 35.2167 9.86213 36.0036 7.8537 36C5.84174 36.0072 3.82978 35.2203 2.29787 33.6539Z" fill="url(#paint4_linear_4675_1209)"/>
<path d="M15.7039 27.9727C15.7039 30.1889 14.825 32.1993 13.4025 33.6502C12.7318 34.336 11.9412 34.8991 11.0658 35.2997C12.3047 33.8812 13.0566 32.008 13.0566 29.9579C13.0566 27.7453 12.1777 25.7313 10.7552 24.2803C9.33621 22.8293 7.37014 21.927 5.20287 21.927C4.05923 21.927 2.96853 22.1796 1.98726 22.6344C2.08609 22.5189 2.19198 22.4034 2.29788 22.2951C3.71684 20.8442 5.68291 19.9418 7.85018 19.9418C10.0175 19.9418 11.9835 20.8442 13.4025 22.2951C14.825 23.7461 15.7039 25.7601 15.7039 27.9727Z" fill="url(#paint5_linear_4675_1209)"/>
<path d="M68.096 31.684C65.72 31.684 63.716 31.312 62.084 30.568C60.452 29.8 59.216 28.768 58.376 27.472C57.536 26.152 57.116 24.64 57.116 22.936H62.84C62.84 23.608 63.02 24.232 63.38 24.808C63.764 25.384 64.34 25.852 65.108 26.212C65.876 26.548 66.872 26.716 68.096 26.716C69.2 26.716 70.124 26.572 70.868 26.284C71.612 25.996 72.176 25.6 72.56 25.096C72.944 24.568 73.136 23.968 73.136 23.296C73.136 22.456 72.776 21.796 72.056 21.316C71.336 20.812 70.172 20.488 68.564 20.344L66.584 20.164C63.968 19.948 61.88 19.132 60.32 17.716C58.76 16.3 57.98 14.428 57.98 12.1C57.98 10.42 58.376 8.968 59.168 7.744C59.984 6.52 61.112 5.584 62.552 4.936C63.992 4.264 65.696 3.928 67.664 3.928C69.728 3.928 71.492 4.288 72.956 5.008C74.444 5.704 75.584 6.7 76.376 7.996C77.168 9.268 77.564 10.768 77.564 12.496H71.804C71.804 11.848 71.648 11.26 71.336 10.732C71.024 10.18 70.556 9.736 69.932 9.4C69.332 9.064 68.576 8.896 67.664 8.896C66.8 8.896 66.068 9.04 65.468 9.328C64.892 9.616 64.46 10.012 64.172 10.516C63.884 10.996 63.74 11.524 63.74 12.1C63.74 12.844 64.004 13.492 64.532 14.044C65.06 14.596 65.924 14.92 67.124 15.016L69.14 15.196C71.06 15.364 72.752 15.784 74.216 16.456C75.68 17.104 76.82 18.004 77.636 19.156C78.476 20.284 78.896 21.664 78.896 23.296C78.896 24.976 78.452 26.452 77.564 27.724C76.7 28.972 75.464 29.944 73.856 30.64C72.248 31.336 70.328 31.684 68.096 31.684ZM94.5557 31V25.168H93.5837V18.832C93.5837 17.824 93.3437 17.068 92.8637 16.564C92.3837 16.06 91.6157 15.808 90.5597 15.808C90.0317 15.808 89.3357 15.82 88.4717 15.844C87.6077 15.868 86.7197 15.904 85.8077 15.952C84.8957 16 84.0677 16.048 83.3237 16.096V11.236C83.8757 11.188 84.5237 11.14 85.2677 11.092C86.0117 11.044 86.7797 11.008 87.5717 10.984C88.3637 10.96 89.1077 10.948 89.8037 10.948C91.8197 10.948 93.5117 11.236 94.8797 11.812C96.2717 12.388 97.3277 13.264 98.0477 14.44C98.7677 15.592 99.1277 17.08 99.1277 18.904V31H94.5557ZM88.2557 31.504C86.8397 31.504 85.5917 31.252 84.5117 30.748C83.4557 30.244 82.6277 29.524 82.0277 28.588C81.4277 27.628 81.1277 26.488 81.1277 25.168C81.1277 23.728 81.4997 22.552 82.2437 21.64C82.9877 20.704 84.0317 20.02 85.3757 19.588C86.7197 19.132 88.2677 18.904 90.0197 18.904H94.2317V22.108H89.9837C88.9757 22.108 88.1957 22.36 87.6437 22.864C87.1157 23.344 86.8517 24.004 86.8517 24.844C86.8517 25.636 87.1157 26.284 87.6437 26.788C88.1957 27.268 88.9757 27.508 89.9837 27.508C90.6317 27.508 91.2077 27.4 91.7117 27.184C92.2397 26.944 92.6717 26.548 93.0077 25.996C93.3437 25.444 93.5357 24.676 93.5837 23.692L94.9517 25.132C94.8317 26.5 94.4957 27.652 93.9437 28.588C93.4157 29.524 92.6717 30.244 91.7117 30.748C90.7757 31.252 89.6237 31.504 88.2557 31.504ZM115.931 31V25.168H114.959V18.832C114.959 17.824 114.719 17.068 114.239 16.564C113.759 16.06 112.991 15.808 111.935 15.808C111.407 15.808 110.711 15.82 109.847 15.844C108.983 15.868 108.095 15.904 107.183 15.952C106.271 16 105.443 16.048 104.699 16.096V11.236C105.251 11.188 105.899 11.14 106.643 11.092C107.387 11.044 108.155 11.008 108.947 10.984C109.739 10.96 110.483 10.948 111.179 10.948C113.195 10.948 114.887 11.236 116.255 11.812C117.647 12.388 118.703 13.264 119.423 14.44C120.143 15.592 120.503 17.08 120.503 18.904V31H115.931ZM109.631 31.504C108.215 31.504 106.967 31.252 105.887 30.748C104.831 30.244 104.003 29.524 103.403 28.588C102.803 27.628 102.503 26.488 102.503 25.168C102.503 23.728 102.875 22.552 103.619 21.64C104.363 20.704 105.407 20.02 106.751 19.588C108.095 19.132 109.643 18.904 111.395 18.904H115.607V22.108H111.359C110.351 22.108 109.571 22.36 109.019 22.864C108.491 23.344 108.227 24.004 108.227 24.844C108.227 25.636 108.491 26.284 109.019 26.788C109.571 27.268 110.351 27.508 111.359 27.508C112.007 27.508 112.583 27.4 113.087 27.184C113.615 26.944 114.047 26.548 114.383 25.996C114.719 25.444 114.911 24.676 114.959 23.692L116.327 25.132C116.207 26.5 115.871 27.652 115.319 28.588C114.791 29.524 114.047 30.244 113.087 30.748C112.151 31.252 110.999 31.504 109.631 31.504ZM132.878 31.612C130.07 31.612 127.874 31.036 126.29 29.884C124.706 28.732 123.866 27.112 123.77 25.024H128.882C128.978 25.648 129.35 26.212 129.998 26.716C130.67 27.196 131.666 27.436 132.986 27.436C133.994 27.436 134.822 27.268 135.47 26.932C136.142 26.572 136.478 26.068 136.478 25.42C136.478 24.844 136.226 24.388 135.722 24.052C135.218 23.692 134.318 23.44 133.022 23.296L131.474 23.152C129.098 22.912 127.31 22.252 126.11 21.172C124.934 20.092 124.346 18.712 124.346 17.032C124.346 15.64 124.694 14.476 125.39 13.54C126.086 12.604 127.046 11.896 128.27 11.416C129.518 10.936 130.934 10.696 132.518 10.696C135.062 10.696 137.114 11.26 138.674 12.388C140.234 13.492 141.05 15.1 141.122 17.212H136.01C135.914 16.564 135.578 16.024 135.002 15.592C134.426 15.136 133.574 14.908 132.446 14.908C131.558 14.908 130.85 15.076 130.322 15.412C129.794 15.748 129.53 16.204 129.53 16.78C129.53 17.332 129.758 17.752 130.214 18.04C130.67 18.328 131.414 18.532 132.446 18.652L133.994 18.796C136.418 19.06 138.302 19.732 139.646 20.812C140.99 21.892 141.662 23.344 141.662 25.168C141.662 26.488 141.302 27.64 140.582 28.624C139.862 29.584 138.842 30.328 137.522 30.856C136.202 31.36 134.654 31.612 132.878 31.612ZM155.006 31.684C153.278 31.684 151.742 31.42 150.398 30.892C149.054 30.34 147.914 29.596 146.978 28.66C146.066 27.724 145.37 26.656 144.89 25.456C144.41 24.232 144.17 22.948 144.17 21.604V20.776C144.17 19.408 144.41 18.112 144.89 16.888C145.394 15.64 146.114 14.548 147.05 13.612C148.01 12.676 149.162 11.944 150.506 11.416C151.85 10.864 153.35 10.588 155.006 10.588C156.71 10.588 158.222 10.864 159.542 11.416C160.886 11.944 162.026 12.676 162.962 13.612C163.898 14.548 164.618 15.64 165.122 16.888C165.626 18.112 165.878 19.408 165.878 20.776V21.604C165.878 22.948 165.638 24.232 165.158 25.456C164.678 26.656 163.97 27.724 163.034 28.66C162.122 29.596 160.994 30.34 159.65 30.892C158.306 31.42 156.758 31.684 155.006 31.684ZM155.006 26.824C156.134 26.824 157.07 26.584 157.814 26.104C158.558 25.624 159.122 24.952 159.506 24.088C159.914 23.224 160.118 22.264 160.118 21.208C160.118 20.08 159.914 19.096 159.506 18.256C159.098 17.392 158.51 16.708 157.742 16.204C156.998 15.7 156.086 15.448 155.006 15.448C153.95 15.448 153.038 15.7 152.27 16.204C151.502 16.708 150.914 17.392 150.506 18.256C150.122 19.096 149.93 20.08 149.93 21.208C149.93 22.264 150.122 23.224 150.506 24.088C150.89 24.952 151.466 25.624 152.234 26.104C153.002 26.584 153.926 26.824 155.006 26.824ZM167.594 31L176.558 16.996L176.63 17.608L168.35 4.72H174.83L179.942 12.928H180.77L185.81 4.72H192.11L183.794 17.68L183.686 17.104L192.938 31H186.422L180.446 21.712H179.582L173.894 31H167.594Z" fill="#1A1A2E"/>
<defs>
<linearGradient id="paint0_linear_4675_1209" x1="54.6186" y1="-19.8501" x2="-20.1219" y2="14.8074" gradientUnits="userSpaceOnUse">
<stop stop-color="#D324A8"/>
<stop offset="1" stop-color="#551DFF"/>
</linearGradient>
<linearGradient id="paint1_linear_4675_1209" x1="53.9706" y1="-18.7123" x2="-17.878" y2="15.3587" gradientUnits="userSpaceOnUse">
<stop stop-color="#D324A8"/>
<stop offset="1" stop-color="#551DFF"/>
</linearGradient>
<linearGradient id="paint2_linear_4675_1209" x1="46.4823" y1="-10.8577" x2="9.12121" y2="6.46777" gradientUnits="userSpaceOnUse">
<stop stop-color="#D324A8"/>
<stop offset="1" stop-color="#551DFF"/>
</linearGradient>
<linearGradient id="paint3_linear_4675_1209" x1="45.1558" y1="-10.3892" x2="11.5347" y2="3.84906" gradientUnits="userSpaceOnUse">
<stop stop-color="#D324A8"/>
<stop offset="1" stop-color="#551DFF"/>
</linearGradient>
<linearGradient id="paint4_linear_4675_1209" x1="26.1863" y1="9.08046" x2="-11.1749" y2="26.4059" gradientUnits="userSpaceOnUse">
<stop stop-color="#D324A8"/>
<stop offset="1" stop-color="#551DFF"/>
</linearGradient>
<linearGradient id="paint5_linear_4675_1209" x1="24.8597" y1="9.55265" x2="-8.76135" y2="23.7909" gradientUnits="userSpaceOnUse">
<stop stop-color="#D324A8"/>
<stop offset="1" stop-color="#551DFF"/>
</linearGradient>
</defs>
</svg>
