<svg width="1920" height="1198" viewBox="0 0 1920 1198" fill="none" xmlns="http://www.w3.org/2000/svg">
<mask id="mask0_4384_82" style="mask-type:alpha" maskUnits="userSpaceOnUse" x="0" y="0" width="1920" height="1198">
<rect width="1920" height="1198" fill="#013228"/>
</mask>
<g mask="url(#mask0_4384_82)">
<rect width="1920" height="1198" fill="#013228"/>
<path d="M293.023 -271L293.023 1101M2340 374.689H-419M1327.65 -271V1101M810.336 -271L810.336 1101M2340 891.799H-419M1844.96 -271V1101M551.68 -271L551.679 1101M2340 633.244H-419M1586.3 -271V1101M1068.99 -271V1101M2103.62 -271V1101M422.351 -271L422.351 1101M2340 503.967H-419M1456.98 -271V1101M939.664 -271L939.664 1101M1974.29 -271V1101M681.008 -271L681.008 1101M2340 762.522H-419M1715.63 -271V1101M1198.32 -271V1101M2232.95 -271V1101M-224.289 -271L-224.289 1101M2340 -142.42H-419M34.3671 -271L34.3671 1101M2340 116.135H-419M-94.961 -271L-94.961 1101M2340 -13.1425H-419M163.695 -271L163.695 1101M2340 245.412H-419" stroke="url(#paint0_linear_4384_82)" stroke-opacity="0.3"/>
<rect x="1586" y="245" width="129" height="131" fill="#103E35"/>
<rect x="1458" y="115" width="129" height="131" fill="#103E35"/>
<rect x="164" y="242" width="129" height="131" fill="#103E35"/>
<rect x="36" y="112" width="129" height="131" fill="#103E35"/>
<g filter="url(#filter0_f_4384_82)">
<circle cx="1847" cy="166" r="227" fill="white"/>
</g>
<g filter="url(#filter1_f_4384_82)">
<circle cx="-29" cy="982" r="192" fill="white"/>
</g>
</g>
<defs>
<filter id="filter0_f_4384_82" x="700" y="-981" width="2294" height="2294" filterUnits="userSpaceOnUse" color-interpolation-filters="sRGB">
<feFlood flood-opacity="0" result="BackgroundImageFix"/>
<feBlend mode="normal" in="SourceGraphic" in2="BackgroundImageFix" result="shape"/>
<feGaussianBlur stdDeviation="460" result="effect1_foregroundBlur_4384_82"/>
</filter>
<filter id="filter1_f_4384_82" x="-981" y="30" width="1904" height="1904" filterUnits="userSpaceOnUse" color-interpolation-filters="sRGB">
<feFlood flood-opacity="0" result="BackgroundImageFix"/>
<feBlend mode="normal" in="SourceGraphic" in2="BackgroundImageFix" result="shape"/>
<feGaussianBlur stdDeviation="380" result="effect1_foregroundBlur_4384_82"/>
</filter>
<linearGradient id="paint0_linear_4384_82" x1="961" y1="-491.5" x2="960.985" y2="520.5" gradientUnits="userSpaceOnUse">
<stop stop-color="#F16615"/>
<stop offset="1" stop-color="white" stop-opacity="0"/>
</linearGradient>
</defs>
</svg>
