<svg width="51" height="53" viewBox="0 0 51 53" fill="none" xmlns="http://www.w3.org/2000/svg">
<g opacity="0.3">
<path d="M44.3773 18.6039C43.3235 14.8543 40.7573 11.6437 36.6787 8.97193C33.7343 7.04317 30.8678 5.95449 28.079 5.70548C25.2874 5.41167 22.7557 5.86793 20.4842 7.07439C18.1975 8.23846 16.3314 10.0055 14.8862 12.3756L24.1024 18.4128C24.9782 17.0758 26.055 16.2675 27.3327 15.9884C28.6106 15.7091 29.9367 16.0197 31.3112 16.9202C32.5956 17.7615 33.3537 18.8002 33.5854 20.0361C33.8045 21.2746 33.4763 22.5623 32.6005 23.8992C31.3558 25.7995 29.7247 26.6095 27.7078 26.3296C25.6832 26.0445 23.2101 24.9451 20.2883 23.0311L17.3138 21.0826L10.3541 31.7071L18.9392 37.3308L21.8299 33.0899C25.7076 35.5764 29.4739 36.5943 33.1288 36.144C36.7909 35.6662 39.793 33.6396 42.135 30.0643C44.6837 26.1736 45.4311 22.3534 44.3773 18.6039Z" fill="#E3E7FF"/>
<path d="M5.69672 38.816L14.282 44.4399L17.5408 39.5386L8.92188 33.8926L5.69672 38.816Z" fill="#E3E7FF"/>
</g>
</svg>
