<svg width="73" height="81" viewBox="0 0 73 81" fill="none" xmlns="http://www.w3.org/2000/svg">
<g opacity="0.3">
<path d="M35.3098 76.2203L50.1444 69.9883L46.6286 61.4565L31.7358 67.7129L35.3098 76.2203Z" fill="#E3E7FF"/>
<path d="M42.9339 8.22245C37.1359 6.30637 30.7134 6.82888 23.6661 9.78942C18.5784 11.9267 14.6508 14.6989 11.8835 18.106C9.05492 21.4778 7.4296 25.1684 7.00705 29.1784C6.51624 33.1715 7.17802 37.1457 8.99263 41.1017L24.9173 34.4119C23.9468 32.1016 23.8399 29.9934 24.5968 28.0876C25.3536 26.1818 26.9195 24.7297 29.2946 23.732C31.5138 22.7997 33.5285 22.7244 35.3382 23.5065C37.1403 24.3069 38.5264 25.8621 39.4969 28.1723C40.8763 31.4558 40.5003 34.2861 38.3686 36.6627C36.2239 39.0448 32.6269 41.2962 27.5783 43.4171L22.4386 45.5763L30.1508 63.9346L44.9855 57.7026L42.0058 50.2281C48.6364 47.3662 53.2606 43.3624 55.878 38.2165C58.4661 33.0373 58.4627 27.3586 55.8674 21.1808C53.0428 14.4578 48.7317 10.1382 42.9339 8.22245Z" fill="#E3E7FF"/>
</g>
</svg>
