<svg width="109" height="112" viewBox="0 0 109 112" fill="none" xmlns="http://www.w3.org/2000/svg">
<g opacity="0.3">
<path d="M66.2669 102.723L83.0064 89.2244L75.331 79.5717L58.5259 93.123L66.2669 102.723Z" fill="#E3E7FF"/>
<path d="M50.8651 12.5854C42.7104 12.2732 34.6572 15.3236 26.705 21.7362C20.964 26.3656 16.9478 31.3803 14.6568 36.7806C12.274 42.1581 11.5544 47.4992 12.4975 52.8048C13.3467 58.1139 15.6689 62.9719 19.4647 67.3793L37.4342 52.889C35.3321 50.2821 34.4137 47.6147 34.6794 44.8872C34.9452 42.1596 36.4178 39.7149 39.0979 37.5537C41.6021 35.5344 44.1612 34.6913 46.7746 35.0251C49.3852 35.3851 51.7413 36.8685 53.8434 39.4754C56.8311 43.1805 57.3969 46.9541 55.5402 50.7956C53.6689 54.6488 49.8843 58.8725 44.1874 63.4664L38.3878 68.1431L55.0924 88.8587L71.8319 75.3603L65.2365 66.8666C72.6903 60.7351 77.1446 53.8808 78.5989 46.3035C80.0033 38.6942 77.8949 31.4037 72.2736 24.4327C66.1557 16.8466 59.0196 12.8973 50.8651 12.5854Z" fill="#E3E7FF"/>
</g>
</svg>
