<svg width="422" height="691" fill="none" xmlns="http://www.w3.org/2000/svg">
<path d="M31 0.5C14.1553 0.5 0.5 14.1553 0.5 31V660C0.5 676.845 14.1553 690.5 31 690.5H391C407.845 690.5 421.5 676.845 421.5 660V31C421.5 14.1553 407.845 0.5 391 0.5H351.649C341.68 0.5 332.34 5.37228 326.636 13.5485L314.544 30.8794C309.027 38.7875 299.993 43.5 290.351 43.5H131.649C122.007 43.5 112.973 38.7875 107.456 30.8794L95.3644 13.5485C89.6601 5.37228 80.3199 0.5 70.3505 0.5H31Z" fill="#E3FFCD" stroke="#D8DDE1"/>
</svg>
