<svg width="97" height="97" viewBox="0 0 97 97" fill="none" xmlns="http://www.w3.org/2000/svg">
<path d="M54.2753 81.8256C54.8044 83.8076 59.3202 82.4664 73.5372 76.1709C88.5823 69.4969 91.6583 67.4772 90.2506 65.4581C88.2806 62.7053 53.5021 78.5981 54.2753 81.8256Z" fill="#1A1A2E"/>
<path d="M19.5451 17.9846C13.7419 19.9863 13.3389 21.2385 13.9474 35.2837C14.5606 49.791 15.1891 52.4192 17.9173 52.5294C22.8649 52.709 23.9338 48.8152 24.07 30.8334C24.163 17.5667 23.8284 16.5071 19.5451 17.9846Z" fill="#1A1A2E"/>
<path d="M58.5105 26.8694C54.3187 28.2535 53.0848 29.6068 49.8722 36.2501C40.4173 55.9929 32.0975 69.3452 40.2028 66.4875C43.5189 65.3436 45.6552 61.8547 57.4825 39.129C63.9612 26.5353 64.1307 25.0544 58.5105 26.8694Z" fill="#1A1A2E"/>
</svg>
