<svg width="108" height="123" viewBox="0 0 108 123" fill="none" xmlns="http://www.w3.org/2000/svg">
<g opacity="0.11">
<path d="M77.8405 15.9641C96.256 25.3358 102.721 39.3386 95.2881 53.9441C85.9165 72.3596 64.9914 66.3478 58.2052 79.683L36.9957 68.8895C46.6259 49.966 61.6303 55.0435 66.6069 45.2643C68.4812 41.5812 67.5435 39.0252 63.7335 37.0863C59.0344 34.6949 55.2597 36.7714 51.7697 43.6294L29.925 32.5126C40.3306 12.0655 58.0279 5.88144 77.8405 15.9641ZM50.2194 100.403C46.2767 108.151 38.2279 110.77 30.4807 106.827C22.8607 102.95 20.241 94.9006 24.1836 87.1535C28.0614 79.5335 36.1104 76.9138 43.7303 80.7916C51.4775 84.7341 54.0974 92.7828 50.2194 100.403Z" stroke="#FED91F" stroke-width="3" stroke-miterlimit="10"/>
</g>
</svg>
